<?xml version="1.0" standalone="no"?>
<!DOCTYPE svg PUBLIC "-//W3C//DTD SVG 1.1//EN" "http://www.w3.org/Graphics/SVG/1.1/DTD/svg11.dtd" >
<svg xmlns="http://www.w3.org/2000/svg" xmlns:xlink="http://www.w3.org/1999/xlink" version="1.1">
<metadata>
Created by FontForge 20170731 at Wed Nov 14 14:54:09 2018
 By Aleksey,,,
(c) 2018, Copyright by Lineto. All rights reserved.
</metadata>
<defs>
<font id="." horiz-adv-x="573" >
  <font-face 
    font-family="."
    font-weight="450"
    font-stretch="normal"
    units-per-em="1000"
    panose-1="2 1 6 4 1 1 1 1 1 4"
    ascent="750"
    descent="-250"
    bbox="-175 -493 3317 983"
    underline-thickness="50"
    underline-position="-150"
    unicode-range="U+01C4-FEFC"
  />
<missing-glyph horiz-adv-x="559" 
d="M76 709h407v-709h-407v709zM404 79v551h-249v-551h249z" />
    <glyph glyph-name="uniFEF5" unicode="&#xfedf;&#xfe82;" horiz-adv-x="649" arabic-form="isolated" 
d="M50 96h226q48 0 75.5 5t39.5 13l-326 501h105l297 -456q11 20 15 47t4 69v447h90v-449q0 -78 -17.5 -130.5t-55 -84t-96.5 -45t-142 -13.5h-199zM-43 650q0 38 22 60.5t70 22.5h120q29 0 46.5 6.5t31.5 20.5l36 -44q-17 -23 -41.5 -34t-62.5 -11h-135q-17 0 -24 -5.5
t-7 -15.5h-56z" />
    <glyph glyph-name="uniFEF6" unicode="&#xfee0;&#xfe82;" horiz-adv-x="660" arabic-form="final" 
d="M50 96h226q49 0 75.5 5t39.5 13l-326 501h105l297 -456q11 20 15 43t4 62v458h90v-492q0 -41 4.5 -67t14 -41t25 -20.5t36.5 -5.5h4q13 0 21.5 -9.5t8.5 -38.5q0 -26 -8.5 -37t-21.5 -11h-13q-51 0 -87 24.5t-51 68.5q-33 -51 -92.5 -72t-164.5 -21h-185zM-44 645
q0 38 22 60.5t70 22.5h120q29 0 46.5 6.5t31.5 20.5l36 -44q-17 -23 -41.5 -34t-62.5 -11h-135q-17 0 -24 -5.5t-7 -15.5h-56z" />
    <glyph glyph-name="uniFEF7" unicode="&#xfedf;&#xfe84;" horiz-adv-x="649" arabic-form="isolated" 
d="M50 96h226q48 0 75.5 5t39.5 13l-326 501h105l297 -456q11 20 15 47t4 69v447h90v-449q0 -78 -17.5 -130.5t-55 -84t-96.5 -45t-142 -13.5h-199zM39 727q-16 21 -16 53q0 41 28.5 70.5t76.5 29.5q28 0 49.5 -11.5t35.5 -30.5l-34 -44q-20 25 -48 25q-23 0 -38 -14
t-15 -36q0 -14 4 -24t12 -18h139v-60h-231v60h37z" />
    <glyph glyph-name="uniFEF8" unicode="&#xfee0;&#xfe84;" horiz-adv-x="660" arabic-form="final" 
d="M50 96h226q49 0 75.5 5t39.5 13l-326 501h105l297 -456q11 20 15 43t4 62v458h90v-492q0 -41 4.5 -67t14 -41t25 -20.5t36.5 -5.5h4q13 0 21.5 -9.5t8.5 -38.5q0 -26 -8.5 -37t-21.5 -11h-13q-51 0 -87 24.5t-51 68.5q-33 -51 -92.5 -72t-164.5 -21h-185zM39 727
q-16 21 -16 53q0 41 28.5 70.5t76.5 29.5q28 0 49.5 -11.5t35.5 -30.5l-34 -44q-20 25 -48 25q-23 0 -38 -14t-15 -36q0 -14 4 -24t12 -18h139v-60h-231v60h37z" />
    <glyph glyph-name="uniFEF9" unicode="&#xfedf;&#xfe88;" horiz-adv-x="649" arabic-form="isolated" 
d="M50 96h226q48 0 75.5 5t39.5 13l-326 501h105l297 -456q11 20 15 47t4 69v447h90v-449q0 -78 -17.5 -130.5t-55 -84t-96.5 -45t-142 -13.5h-199zM117 -213q-16 21 -16 53q0 41 28.5 70.5t76.5 29.5q28 0 49.5 -11.5t35.5 -30.5l-34 -44q-20 25 -48 25q-23 0 -38 -14
t-15 -36q0 -14 4 -24t12 -18h139v-60h-231v60h37z" />
    <glyph glyph-name="uniFEFA" unicode="&#xfee0;&#xfe88;" horiz-adv-x="660" arabic-form="final" 
d="M50 96h226q49 0 75.5 5t39.5 13l-326 501h105l297 -456q11 20 15 43t4 62v458h90v-492q0 -41 4.5 -67t14 -41t25 -20.5t36.5 -5.5h4q13 0 21.5 -9.5t8.5 -38.5q0 -26 -8.5 -37t-21.5 -11h-13q-51 0 -87 24.5t-51 68.5q-33 -51 -92.5 -72t-164.5 -21h-185zM117 -213
q-16 21 -16 53q0 41 28.5 70.5t76.5 29.5q28 0 49.5 -11.5t35.5 -30.5l-34 -44q-20 25 -48 25q-23 0 -38 -14t-15 -36q0 -14 4 -24t12 -18h139v-60h-231v60h37z" />
    <glyph glyph-name="uniFEFB" unicode="&#xfedf;&#xfe8e;" horiz-adv-x="649" arabic-form="isolated" 
d="M50 96h226q48 0 75.5 5t39.5 13l-326 501h105l297 -456q11 20 15 47t4 69v447h90v-449q0 -78 -17.5 -130.5t-55 -84t-96.5 -45t-142 -13.5h-199z" />
    <glyph glyph-name="uniFEFC" unicode="&#xfee0;&#xfe8e;" horiz-adv-x="660" arabic-form="final" 
d="M50 96h226q49 0 75.5 5t39.5 13l-326 501h105l297 -456q11 20 15 43t4 62v458h90v-492q0 -41 4.5 -67t14 -41t25 -20.5t36.5 -5.5h4q13 0 21.5 -9.5t8.5 -38.5q0 -26 -8.5 -37t-21.5 -11h-13q-51 0 -87 24.5t-51 68.5q-33 -51 -92.5 -72t-164.5 -21h-185z" />
    <glyph glyph-name="arLam.init_arAlifWasla.fina" unicode="&#xfedf;&#xfb51;" horiz-adv-x="649" 
d="M50 96h226q48 0 75.5 5t39.5 13l-326 501h105l297 -456q11 20 15 47t4 69v447h90v-449q0 -78 -17.5 -130.5t-55 -84t-96.5 -45t-142 -13.5h-199zM1 658v54h38q7 58 40 92.5t83 34.5q40 0 65 -24t25 -62q0 -42 -31.5 -68.5t-100.5 -26.5h-119zM88 713h40q42 0 59 10t17 27
q0 37 -45 37q-29 0 -48 -21t-23 -53z" />
    <glyph glyph-name="arLam.medi_arAlifWasla.fina" unicode="&#xfee0;&#xfb51;" horiz-adv-x="660" 
d="M50 96h226q49 0 75.5 5t39.5 13l-326 501h105l297 -456q11 20 15 43t4 62v458h90v-492q0 -41 4.5 -67t14 -41t25 -20.5t36.5 -5.5h4q13 0 21.5 -9.5t8.5 -38.5q0 -26 -8.5 -37t-21.5 -11h-13q-51 0 -87 24.5t-51 68.5q-33 -51 -92.5 -72t-164.5 -21h-185zM2 658v54h38
q7 58 40 92.5t83 34.5q40 0 65 -24t25 -62q0 -42 -31.5 -68.5t-100.5 -26.5h-119zM89 713h40q42 0 59 10t17 27q0 37 -45 37q-29 0 -48 -21t-23 -53z" />
    <glyph glyph-name="uni0621" unicode="&#x621;" horiz-adv-x="579" arabic-form="isolated" 
d="M80 90h93q-24 19 -41 52.5t-17 73.5q0 37 13 70t37.5 58t59 39.5t76.5 14.5q53 0 94.5 -22t67.5 -63l-60 -59q-38 57 -101 57q-51 0 -80.5 -31t-29.5 -81q0 -46 33.5 -77.5t90.5 -31.5h183v-90h-419v90z" />
    <glyph glyph-name="uni0622" unicode="&#x622;" horiz-adv-x="236" arabic-form="isolated" 
d="M163 0h-90v722h90v-722zM-40 754q0 38 22 60.5t70 22.5h120q29 0 46.5 6.5t31.5 20.5l36 -44q-17 -23 -41.5 -34t-62.5 -11h-135q-17 0 -24 -5.5t-7 -15.5h-56z" />
    <glyph glyph-name="uni0623" unicode="&#x623;" horiz-adv-x="236" arabic-form="isolated" 
d="M163 0h-90v722h90v-722zM40 818q-16 21 -16 53q0 41 28.5 70.5t76.5 29.5q28 0 49.5 -11.5t35.5 -30.5l-34 -44q-20 25 -48 25q-23 0 -38 -14t-15 -36q0 -14 4 -24t12 -18h139v-60h-231v60h37z" />
    <glyph glyph-name="uni0624" unicode="&#x624;" horiz-adv-x="527" arabic-form="isolated" 
d="M201 -144q74 0 117.5 37.5t52.5 105.5h-59q-63 0 -110 13.5t-78 38t-46 58t-15 73.5q0 38 13.5 71.5t38 59t58 40t74.5 14.5q45 0 84 -19t67.5 -57.5t44.5 -95.5t16 -132q0 -74 -18 -130t-51.5 -93.5t-80.5 -56.5t-105 -19q-47 0 -88.5 10t-69.5 29l35 83q27 -16 56 -23
t64 -7zM144 185q0 -45 32.5 -70t116.5 -25h80q-4 98 -40.5 143t-89.5 45q-43 0 -71 -25.5t-28 -67.5zM166 487q-16 21 -16 53q0 41 28.5 70.5t76.5 29.5q28 0 49.5 -11.5t35.5 -30.5l-34 -44q-20 25 -48 25q-23 0 -38 -14t-15 -36q0 -14 4 -24t12 -18h139v-60h-231v60h37z
" />
    <glyph glyph-name="uni0625" unicode="&#x625;" horiz-adv-x="236" arabic-form="isolated" 
d="M163 0h-90v722h90v-722zM37 -213q-16 21 -16 53q0 41 28.5 70.5t76.5 29.5q28 0 49.5 -11.5t35.5 -30.5l-34 -44q-20 25 -48 25q-23 0 -38 -14t-15 -36q0 -14 4 -24t12 -18h139v-60h-231v60h37z" />
    <glyph glyph-name="uni0626" unicode="&#x626;" horiz-adv-x="738" arabic-form="isolated" 
d="M608 358q-38 47 -98 47q-49 0 -77.5 -27.5t-28.5 -64.5q0 -24 8.5 -39.5t23 -26t33.5 -17.5t39 -14q37 -12 67.5 -25.5t52 -32.5t33.5 -45t12 -62q0 -43 -18 -80t-55.5 -64.5t-96.5 -43t-140 -15.5q-79 0 -136.5 17.5t-94.5 49.5t-54.5 76.5t-17.5 99.5q0 37 8 69t19 56
l81 -28q-8 -20 -12.5 -42.5t-4.5 -46.5q0 -78 53 -116t165 -38q114 0 164.5 29t50.5 71q0 19 -8 32.5t-21.5 23t-31.5 16.5t-37 13q-29 9 -59 21t-55 31t-41 48.5t-16 73.5q0 37 14 72t40 62t63 43t84 16q51 0 89 -19t61 -51zM70 334q-16 21 -16 53q0 41 28.5 70.5
t76.5 29.5q28 0 49.5 -11.5t35.5 -30.5l-34 -44q-20 25 -48 25q-23 0 -38 -14t-15 -36q0 -14 4 -24t12 -18h139v-60h-231v60h37z" />
    <glyph glyph-name="uni0627" unicode="&#x627;" horiz-adv-x="236" arabic-form="isolated" 
d="M163 0h-90v722h90v-722z" />
    <glyph glyph-name="uni0628" unicode="&#x628;" horiz-adv-x="960" arabic-form="isolated" 
d="M67 217q0 42 10 78t27 65l79 -30q-12 -23 -19 -48.5t-7 -53.5q0 -64 40.5 -98t138.5 -34h278q102 0 143.5 30.5t41.5 88.5q0 41 -17.5 80t-47.5 71l66 74q41 -45 65.5 -102.5t24.5 -123.5q0 -103 -66 -158.5t-203 -55.5h-305q-126 0 -187.5 58.5t-61.5 158.5zM456 -168
q-23 0 -39 16t-16 40q0 23 16 39t39 16t39 -16t16 -39q0 -24 -16 -40t-39 -16z" />
    <glyph glyph-name="uni0629" unicode="&#x629;" horiz-adv-x="562" arabic-form="isolated" 
d="M67 213q0 54 16 99t44.5 77.5t68 50.5t85.5 18t85 -18t67.5 -50.5t44.5 -77.5t16 -99q0 -53 -15 -95t-42.5 -71.5t-67 -45.5t-88.5 -16t-88.5 16t-67.5 45.5t-43 71.5t-15 95zM151 213q0 -62 33 -96t97 -34t97 34t33 96q0 70 -37.5 109.5t-92.5 39.5t-92.5 -39.5
t-37.5 -109.5zM351 509q-23 0 -38 15.5t-15 38.5q0 22 15 37t38 15q22 0 37 -15t15 -37q0 -23 -15 -38.5t-37 -15.5zM214 509q-22 0 -37.5 15.5t-15.5 38.5q0 22 15.5 37t37.5 15t37 -15t15 -37q0 -23 -15 -38.5t-37 -15.5z" />
    <glyph glyph-name="uni062A" unicode="&#x62a;" horiz-adv-x="960" arabic-form="isolated" 
d="M67 217q0 42 10 78t27 65l79 -30q-12 -23 -19 -48.5t-7 -53.5q0 -64 40.5 -98t138.5 -34h278q102 0 143.5 30.5t41.5 88.5q0 41 -17.5 80t-47.5 71l66 74q41 -45 65.5 -102.5t24.5 -123.5q0 -103 -66 -158.5t-203 -55.5h-305q-126 0 -187.5 58.5t-61.5 158.5zM531 402
q-23 0 -38 15.5t-15 38.5q0 22 15 37t38 15q22 0 37 -15t15 -37q0 -23 -15 -38.5t-37 -15.5zM394 402q-22 0 -37.5 15.5t-15.5 38.5q0 22 15.5 37t37.5 15t37 -15t15 -37q0 -23 -15 -38.5t-37 -15.5z" />
    <glyph glyph-name="uni062B" unicode="&#x62b;" horiz-adv-x="960" arabic-form="isolated" 
d="M67 217q0 42 10 78t27 65l79 -30q-12 -23 -19 -48.5t-7 -53.5q0 -64 40.5 -98t138.5 -34h278q102 0 143.5 30.5t41.5 88.5q0 41 -17.5 80t-47.5 71l66 74q41 -45 65.5 -102.5t24.5 -123.5q0 -103 -66 -158.5t-203 -55.5h-305q-126 0 -187.5 58.5t-61.5 158.5zM530 395
q-21 0 -36 15t-15 37t15 37t36 15q22 0 37 -15t15 -37t-15 -37t-37 -15zM394 395q-21 0 -36 15t-15 37t15 37t36 15q22 0 37 -15t15 -37t-15 -37t-37 -15zM463 511q-21 0 -36 15t-15 37t15 37t36 15q22 0 37 -15t15 -37t-15 -37t-37 -15z" />
    <glyph glyph-name="uni062C" unicode="&#x62c;" horiz-adv-x="726" arabic-form="isolated" 
d="M626 234q-7 1 -21 2t-31 1.5l-34 1t-30 0.5q-88 0 -152 -20.5t-105.5 -54t-61.5 -77.5t-20 -91q0 -49 15.5 -89t47 -68t79 -43.5t111.5 -15.5q77 0 131.5 24t92.5 63l56 -73q-46 -51 -116.5 -80.5t-164.5 -29.5q-82 0 -146 22t-108 61.5t-67 93.5t-23 119q0 67 26 128
t77.5 107.5t128 74t178.5 27.5h11.5t11.5 -1l-113 59q-44 23 -73.5 32.5t-60.5 9.5q-51 0 -82 -26.5t-43 -73.5l-80 26q17 76 70.5 122t131.5 46q44 0 86.5 -15t99.5 -47l218 -124zM423 -44q-23 0 -39 16.5t-16 39.5t16 39.5t39 16.5t39 -16.5t16 -39.5t-16 -39.5t-39 -16.5
z" />
    <glyph glyph-name="uni062D" unicode="&#x62d;" horiz-adv-x="726" arabic-form="isolated" 
d="M626 234q-7 1 -21 2t-31 1.5l-34 1t-30 0.5q-88 0 -152 -20.5t-105.5 -54t-61.5 -77.5t-20 -91q0 -49 15.5 -89t47 -68t79 -43.5t111.5 -15.5q77 0 131.5 24t92.5 63l56 -73q-46 -51 -116.5 -80.5t-164.5 -29.5q-82 0 -146 22t-108 61.5t-67 93.5t-23 119q0 67 26 128
t77.5 107.5t128 74t178.5 27.5h11.5t11.5 -1l-113 59q-44 23 -73.5 32.5t-60.5 9.5q-51 0 -82 -26.5t-43 -73.5l-80 26q17 76 70.5 122t131.5 46q44 0 86.5 -15t99.5 -47l218 -124z" />
    <glyph glyph-name="uni062E" unicode="&#x62e;" horiz-adv-x="726" arabic-form="isolated" 
d="M626 234q-7 1 -21 2t-31 1.5l-34 1t-30 0.5q-88 0 -152 -20.5t-105.5 -54t-61.5 -77.5t-20 -91q0 -49 15.5 -89t47 -68t79 -43.5t111.5 -15.5q77 0 131.5 24t92.5 63l56 -73q-46 -51 -116.5 -80.5t-164.5 -29.5q-82 0 -146 22t-108 61.5t-67 93.5t-23 119q0 67 26 128
t77.5 107.5t128 74t178.5 27.5h11.5t11.5 -1l-113 59q-44 23 -73.5 32.5t-60.5 9.5q-51 0 -82 -26.5t-43 -73.5l-80 26q17 76 70.5 122t131.5 46q44 0 86.5 -15t99.5 -47l218 -124zM246 560q-23 0 -39 16.5t-16 39.5t16 39.5t39 16.5t39 -16.5t16 -39.5t-16 -39.5t-39 -16.5
z" />
    <glyph glyph-name="uni062F" unicode="&#x62f;" horiz-adv-x="490" arabic-form="isolated" 
d="M54 98q26 -5 60 -9t73 -4q86 0 123.5 28t37.5 82q0 62 -47.5 121t-153.5 115l48 88q122 -66 181.5 -149.5t59.5 -174.5q0 -96 -60.5 -151t-184.5 -55q-42 0 -80 4t-57 9v96z" />
    <glyph glyph-name="uni0630" unicode="&#x630;" horiz-adv-x="490" arabic-form="isolated" 
d="M54 98q26 -5 60 -9t73 -4q86 0 123.5 28t37.5 82q0 62 -47.5 121t-153.5 115l48 88q122 -66 181.5 -149.5t59.5 -174.5q0 -96 -60.5 -151t-184.5 -55q-42 0 -80 4t-57 9v96zM223 592q-23 0 -39 16.5t-16 39.5t16 39.5t39 16.5t39 -16.5t16 -39.5t-16 -39.5t-39 -16.5z
" />
    <glyph glyph-name="uni0631" unicode="&#x631;" horiz-adv-x="424" arabic-form="isolated" 
d="M269 291q42 -58 64.5 -125t22.5 -140q0 -62 -17 -111t-47.5 -82.5t-73.5 -51t-94 -17.5q-42 0 -79 10t-57 23l36 83q44 -22 94 -22q71 0 109.5 42t38.5 118q0 58 -21 113.5t-56 102.5z" />
    <glyph glyph-name="uni0632" unicode="&#x632;" horiz-adv-x="424" arabic-form="isolated" 
d="M269 291q42 -58 64.5 -125t22.5 -140q0 -62 -17 -111t-47.5 -82.5t-73.5 -51t-94 -17.5q-42 0 -79 10t-57 23l36 83q44 -22 94 -22q71 0 109.5 42t38.5 118q0 58 -21 113.5t-56 102.5zM226 372q-23 0 -39 16.5t-16 39.5t16 39.5t39 16.5t39 -16.5t16 -39.5t-16 -39.5
t-39 -16.5z" />
    <glyph glyph-name="uni0633" unicode="&#x633;" horiz-adv-x="1152" arabic-form="isolated" 
d="M62 42q0 42 8.5 78t21.5 65l81 -25q-9 -25 -15 -51.5t-6 -58.5q0 -77 46.5 -119t143.5 -42q94 0 143.5 41.5t49.5 121.5q0 51 -16 93t-51 81l68 72q34 -38 56 -85.5t30 -103.5q17 -13 55 -13t59 20t21 66v90h85v-90q0 -47 19.5 -66.5t59.5 -19.5q36 0 57 21t21 66
q0 39 -14 70.5t-39 55.5l64 67q36 -34 56.5 -83.5t20.5 -108.5q0 -88 -44 -136t-119 -48q-45 0 -76 15.5t-48 44.5q-17 -28 -50 -44t-72 -16q-16 0 -31.5 3t-25.5 8q-13 -101 -81 -159.5t-200 -58.5q-69 0 -121 18t-87 51t-52.5 79t-17.5 101z" />
    <glyph glyph-name="uni0634" unicode="&#x634;" horiz-adv-x="1152" arabic-form="isolated" 
d="M62 42q0 42 8.5 78t21.5 65l81 -25q-9 -25 -15 -51.5t-6 -58.5q0 -77 46.5 -119t143.5 -42q94 0 143.5 41.5t49.5 121.5q0 51 -16 93t-51 81l68 72q34 -38 56 -85.5t30 -103.5q17 -13 55 -13t59 20t21 66v90h85v-90q0 -47 19.5 -66.5t59.5 -19.5q36 0 57 21t21 66
q0 39 -14 70.5t-39 55.5l64 67q36 -34 56.5 -83.5t20.5 -108.5q0 -88 -44 -136t-119 -48q-45 0 -76 15.5t-48 44.5q-17 -28 -50 -44t-72 -16q-16 0 -31.5 3t-25.5 8q-13 -101 -81 -159.5t-200 -58.5q-69 0 -121 18t-87 51t-52.5 79t-17.5 101zM851 353q-21 0 -36 15t-15 37
t15 37t36 15q22 0 37 -15t15 -37t-15 -37t-37 -15zM715 353q-21 0 -36 15t-15 37t15 37t36 15q22 0 37 -15t15 -37t-15 -37t-37 -15zM784 469q-21 0 -36 15t-15 37t15 37t36 15q22 0 37 -15t15 -37t-15 -37t-37 -15z" />
    <glyph glyph-name="uni0635" unicode="&#x635;" horiz-adv-x="1277" arabic-form="isolated" 
d="M62 42q0 42 8.5 78t21.5 65l81 -25q-9 -25 -15 -51.5t-6 -58.5q0 -76 47 -118.5t147 -42.5q91 0 139 42t48 121q0 52 -16 93.5t-49 80.5l68 72q34 -38 56 -85.5t30 -103.5q9 -7 22 -10t34 -3q12 82 42 143.5t71.5 102t91.5 60.5t104 20q50 0 91.5 -14.5t71 -42t46 -66.5
t16.5 -88q0 -45 -17 -84t-51.5 -67t-87.5 -44t-125 -16h-252q-36 0 -58 11q-13 -103 -85 -160.5t-191 -57.5q-71 0 -124 18t-88.5 51t-53 79t-17.5 101zM761 96h190q91 0 133.5 29t42.5 83q0 60 -39.5 94t-103.5 34q-41 0 -78 -15t-66.5 -45t-50 -75t-28.5 -105z" />
    <glyph glyph-name="uni0636" unicode="&#x636;" horiz-adv-x="1277" arabic-form="isolated" 
d="M62 42q0 42 8.5 78t21.5 65l81 -25q-9 -25 -15 -51.5t-6 -58.5q0 -76 47 -118.5t147 -42.5q91 0 139 42t48 121q0 52 -16 93.5t-49 80.5l68 72q34 -38 56 -85.5t30 -103.5q9 -7 22 -10t34 -3q12 82 42 143.5t71.5 102t91.5 60.5t104 20q50 0 91.5 -14.5t71 -42t46 -66.5
t16.5 -88q0 -45 -17 -84t-51.5 -67t-87.5 -44t-125 -16h-252q-36 0 -58 11q-13 -103 -85 -160.5t-191 -57.5q-71 0 -124 18t-88.5 51t-53 79t-17.5 101zM761 96h190q91 0 133.5 29t42.5 83q0 60 -39.5 94t-103.5 34q-41 0 -78 -15t-66.5 -45t-50 -75t-28.5 -105zM652 386
q-23 0 -39 16.5t-16 39.5t16 39.5t39 16.5t39 -16.5t16 -39.5t-16 -39.5t-39 -16.5z" />
    <glyph glyph-name="uni0637" unicode="&#x637;" horiz-adv-x="741" arabic-form="isolated" 
d="M50 96h90v626h83v-244q0 -45 -2 -96t-6 -103q42 74 104 108.5t131 34.5q50 0 91.5 -14.5t71 -42t46 -66.5t16.5 -88q0 -45 -17 -84t-51.5 -67t-87.5 -44t-125 -16h-327zM225 96h190q90 0 132.5 29t42.5 83q0 60 -39 94t-104 34q-41 0 -78 -15t-66 -45t-49.5 -75
t-28.5 -105z" />
    <glyph glyph-name="uni0638" unicode="&#x638;" horiz-adv-x="741" arabic-form="isolated" 
d="M50 96h90v626h83v-244q0 -45 -2 -96t-6 -103q42 74 104 108.5t131 34.5q50 0 91.5 -14.5t71 -42t46 -66.5t16.5 -88q0 -45 -17 -84t-51.5 -67t-87.5 -44t-125 -16h-327zM225 96h190q90 0 132.5 29t42.5 83q0 60 -39 94t-104 34q-41 0 -78 -15t-66 -45t-49.5 -75
t-28.5 -105zM448 497q-23 0 -39 16.5t-16 39.5t16 39.5t39 16.5t39 -16.5t16 -39.5t-16 -39.5t-39 -16.5z" />
    <glyph glyph-name="uni0639" unicode="&#x639;" horiz-adv-x="596" arabic-form="isolated" 
d="M449 403q-18 44 -49.5 64.5t-73.5 20.5q-31 0 -56 -10t-42.5 -27.5t-27 -41.5t-9.5 -52q0 -39 18.5 -67.5t51.5 -46.5q59 32 125.5 50t131.5 21v-88q-84 -7 -150.5 -28.5t-112.5 -55t-70.5 -77.5t-24.5 -96q0 -81 54 -127t158 -46q72 0 124.5 22.5t86.5 58.5l53 -71
q-41 -48 -110.5 -77t-155.5 -29q-71 0 -126 19t-93 53.5t-58 82t-20 103.5q0 75 31.5 134t84.5 102q-39 27 -63.5 70.5t-24.5 98.5q0 45 16.5 85t46 69.5t70.5 47t90 17.5q73 0 124.5 -36t78.5 -102z" />
    <glyph glyph-name="uni063A" unicode="&#x63a;" horiz-adv-x="596" arabic-form="isolated" 
d="M449 403q-18 44 -49.5 64.5t-73.5 20.5q-31 0 -56 -10t-42.5 -27.5t-27 -41.5t-9.5 -52q0 -39 18.5 -67.5t51.5 -46.5q59 32 125.5 50t131.5 21v-88q-84 -7 -150.5 -28.5t-112.5 -55t-70.5 -77.5t-24.5 -96q0 -81 54 -127t158 -46q72 0 124.5 22.5t86.5 58.5l53 -71
q-41 -48 -110.5 -77t-155.5 -29q-71 0 -126 19t-93 53.5t-58 82t-20 103.5q0 75 31.5 134t84.5 102q-39 27 -63.5 70.5t-24.5 98.5q0 45 16.5 85t46 69.5t70.5 47t90 17.5q73 0 124.5 -36t78.5 -102zM294 630q-23 0 -39 16.5t-16 39.5t16 39.5t39 16.5t39 -16.5t16 -39.5
t-16 -39.5t-39 -16.5z" />
    <glyph glyph-name="uni0641" unicode="&#x641;" horiz-adv-x="969" arabic-form="isolated" 
d="M183 330q-12 -23 -19 -48.5t-7 -53.5q0 -64 40.5 -98t138.5 -34h228q58 0 100.5 5.5t71.5 17.5t47 32t26 50h-51q-131 0 -192.5 49.5t-61.5 128.5q0 38 13.5 71.5t37.5 59t57.5 40t74.5 14.5q46 0 84.5 -19t67 -57t44.5 -94t16 -129q0 -66 -19 -116t-59.5 -83
t-104.5 -49.5t-154 -16.5h-246q-126 0 -187.5 58.5t-61.5 158.5q0 42 10 78t27 65zM584 381q0 -22 8 -39.5t26.5 -29.5t48.5 -18.5t74 -6.5h75q-3 98 -40.5 143t-91.5 45q-44 0 -72 -25t-28 -69zM683 625q-23 0 -39 16.5t-16 39.5t16 39.5t39 16.5t39 -16.5t16 -39.5
t-16 -39.5t-39 -16.5z" />
    <glyph glyph-name="uni0642" unicode="&#x642;" horiz-adv-x="786" arabic-form="isolated" 
d="M173 245q-9 -25 -15 -51.5t-6 -58.5q0 -77 47 -119t148 -42h34q61 0 105.5 9.5t74.5 29.5t46.5 50.5t21.5 72.5h-60q-63 0 -109 13.5t-76.5 37t-45.5 56.5t-15 72q0 38 13.5 71.5t37.5 59t57.5 40t74.5 14.5q46 0 84.5 -19t67 -57.5t44.5 -96.5t16 -137
q0 -153 -79.5 -232.5t-242.5 -79.5h-49q-71 0 -124.5 18t-89 51t-53.5 78.5t-18 101.5q0 42 8.5 78t21.5 65zM403 318q0 -22 8 -39.5t25.5 -30t46 -19t69.5 -6.5h79q-3 52 -14 88t-28 58.5t-39 32t-47 9.5q-44 0 -72 -25.5t-28 -67.5zM572 563q-23 0 -38 15.5t-15 38.5
q0 22 15 37t38 15q22 0 37 -15t15 -37q0 -23 -15 -38.5t-37 -15.5zM435 563q-22 0 -37.5 15.5t-15.5 38.5q0 22 15.5 37t37.5 15t37 -15t15 -37q0 -23 -15 -38.5t-37 -15.5z" />
    <glyph glyph-name="uni0643" unicode="&#x643;" horiz-adv-x="722" arabic-form="isolated" 
d="M40 0v96h519v626h90v-722h-609zM210 308h136q26 0 36.5 6t10.5 17q0 12 -10.5 18t-36.5 6h-94l-27 45l89 113l42 -36l-62 -69h60q40 0 63.5 -19.5t23.5 -58.5q0 -36 -24 -55t-67 -19h-140v52z" />
    <glyph glyph-name="uni0644" unicode="&#x644;" horiz-adv-x="652" arabic-form="isolated" 
d="M50 52q0 42 8.5 77t22.5 64l79 -23q-10 -25 -16 -51.5t-6 -58.5q0 -136 170 -136q98 0 142 43t44 141v614h90v-628q0 -130 -71 -198t-205 -68q-64 0 -112 17t-80.5 47t-49 71t-16.5 89z" />
    <glyph glyph-name="uni0645" unicode="&#x645;" horiz-adv-x="641" arabic-form="isolated" 
d="M68 -282v203q0 142 65 219t189 77q42 0 82.5 -9t70.5 -23q-6 53 -19.5 90t-33.5 60.5t-45.5 34t-53.5 10.5q-47 0 -75 -25t-41 -73l-85 25q23 81 74 124.5t128 43.5q53 0 97.5 -21t76.5 -62.5t50.5 -103t19.5 -143.5l-50 -72q-39 24 -85.5 38.5t-94.5 14.5
q-95 0 -137.5 -52.5t-42.5 -169.5v-186h-90z" />
    <glyph glyph-name="uni0646" unicode="&#x646;" horiz-adv-x="697" arabic-form="isolated" 
d="M62 117q0 42 8.5 78t21.5 65l81 -25q-9 -25 -15 -51t-6 -58q0 -78 46.5 -119.5t143.5 -41.5q94 0 143.5 41.5t49.5 123.5q0 49 -16 90.5t-51 80.5l68 72q43 -45 67.5 -107t24.5 -132q0 -62 -19 -111t-55.5 -83.5t-90.5 -53t-123 -18.5t-121 18t-87 51t-52.5 79t-17.5 101
zM336 371q-23 0 -39 16.5t-16 39.5t16 39.5t39 16.5t39 -16.5t16 -39.5t-16 -39.5t-39 -16.5z" />
    <glyph glyph-name="uni0648" unicode="&#x648;" horiz-adv-x="527" arabic-form="isolated" 
d="M201 -144q74 0 117.5 37.5t52.5 105.5h-59q-63 0 -110 13.5t-78 38t-46 58t-15 73.5q0 38 13.5 71.5t38 59t58 40t74.5 14.5q45 0 84 -19t67.5 -57.5t44.5 -95.5t16 -132q0 -74 -18 -130t-51.5 -93.5t-80.5 -56.5t-105 -19q-47 0 -88.5 10t-69.5 29l35 83q27 -16 56 -23
t64 -7zM144 185q0 -45 32.5 -70t116.5 -25h80q-4 98 -40.5 143t-89.5 45q-43 0 -71 -25.5t-28 -67.5z" />
    <glyph glyph-name="uni0649" unicode="&#x649;" horiz-adv-x="738" arabic-form="isolated" 
d="M608 358q-38 47 -98 47q-49 0 -77.5 -27.5t-28.5 -64.5q0 -24 8.5 -39.5t23 -26t33.5 -17.5t39 -14q37 -12 67.5 -25.5t52 -32.5t33.5 -45t12 -62q0 -43 -18 -80t-55.5 -64.5t-96.5 -43t-140 -15.5q-79 0 -136.5 17.5t-94.5 49.5t-54.5 76.5t-17.5 99.5q0 37 8 69t19 56
l81 -28q-8 -20 -12.5 -42.5t-4.5 -46.5q0 -78 53 -116t165 -38q114 0 164.5 29t50.5 71q0 19 -8 32.5t-21.5 23t-31.5 16.5t-37 13q-29 9 -59 21t-55 31t-41 48.5t-16 73.5q0 37 14 72t40 62t63 43t84 16q51 0 89 -19t61 -51z" />
    <glyph glyph-name="uni064A" unicode="&#x64a;" horiz-adv-x="738" arabic-form="isolated" 
d="M608 358q-38 47 -98 47q-49 0 -77.5 -27.5t-28.5 -64.5q0 -24 8.5 -39.5t23 -26t33.5 -17.5t39 -14q37 -12 67.5 -25.5t52 -32.5t33.5 -45t12 -62q0 -43 -18 -80t-55.5 -64.5t-96.5 -43t-140 -15.5q-79 0 -136.5 17.5t-94.5 49.5t-54.5 76.5t-17.5 99.5q0 37 8 69t19 56
l81 -28q-8 -20 -12.5 -42.5t-4.5 -46.5q0 -78 53 -116t165 -38q114 0 164.5 29t50.5 71q0 19 -8 32.5t-21.5 23t-31.5 16.5t-37 13q-29 9 -59 21t-55 31t-41 48.5t-16 73.5q0 37 14 72t40 62t63 43t84 16q51 0 89 -19t61 -51zM428 -314q-23 0 -38 15.5t-15 38.5t15 38t38 15
q22 0 37 -15t15 -38t-15 -38.5t-37 -15.5zM291 -314q-22 0 -37.5 15.5t-15.5 38.5t15.5 38t37.5 15t37 -15t15 -38t-15 -38.5t-37 -15.5z" />
    <glyph glyph-name="uni066E.init" unicode="&#x66e;" horiz-adv-x="309" 
d="M144 440q45 -51 69.5 -105t24.5 -118q0 -107 -58.5 -162t-161.5 -55h-18q-11 0 -20.5 9.5t-9.5 38.5t9.5 38.5t20.5 9.5h10q138 0 138 118q0 42 -17.5 78.5t-52.5 74.5z" />
    <glyph glyph-name="uni066E.medi" unicode="&#x66e;" horiz-adv-x="315" 
d="M203 333v-142q0 -56 20.5 -75.5t62.5 -19.5h29q11 0 20.5 -13t9.5 -36q0 -26 -9.5 -36.5t-20.5 -10.5h-34q-45 0 -77 16t-47 45q-15 -29 -48 -45t-77 -16h-32q-14 0 -22 10t-8 36q0 50 30 50h28q44 0 64.5 19.5t20.5 75.5v142h90z" />
    <glyph glyph-name="uni066E.fina" unicode="&#x66e;" horiz-adv-x="931" 
d="M67 217q0 42 10 78t27 65l79 -30q-12 -23 -19 -48.5t-7 -53.5q0 -64 40.5 -98t138.5 -34h164q64 0 107.5 7.5t69.5 24.5t37 44.5t11 67.5v78h88v-104q0 -35 6.5 -58t19.5 -36.5t32.5 -18.5t45.5 -5h13q14 0 22.5 -12t8.5 -38t-9 -36t-22 -10h-22q-54 0 -91.5 22t-53.5 66
q-27 -42 -87 -65t-169 -23h-191q-126 0 -187.5 58.5t-61.5 158.5z" />
    <glyph glyph-name="uni066F.init" unicode="&#x66f;" horiz-adv-x="505" 
d="M117 96q110 0 165 23t71 82h-52q-131 0 -192.5 49.5t-61.5 128.5q0 38 13.5 71.5t38 59t58 40t73.5 14.5q46 0 85 -19t67.5 -57t44.5 -94t16 -129q0 -131 -77.5 -198t-249.5 -67h-116q-13 0 -21.5 10.5t-8.5 37.5q0 29 8.5 38.5t21.5 9.5h117zM128 381q0 -22 8 -39.5
t26.5 -29.5t48.5 -18.5t74 -6.5h75q-3 98 -41 143t-92 45q-44 0 -71.5 -25t-27.5 -69z" />
    <glyph glyph-name="uni066F.medi" unicode="&#x66f;" horiz-adv-x="495" 
d="M248 477q39 0 72 -14.5t57.5 -40t38.5 -61.5t14 -79q0 -55 -21.5 -98t-58.5 -76q60 -12 128 -12h18q11 0 20 -11.5t9 -37.5q0 -23 -9.5 -35t-20.5 -12q-67 0 -130.5 11t-117.5 34q-54 -23 -117.5 -34t-129.5 -11q-11 0 -20.5 12t-9.5 35q0 26 10 37.5t21 11.5h17
q33 0 65 2.5t62 8.5q-38 33 -59 76.5t-21 98.5q0 42 14 78t39 62t58 40.5t72 14.5zM145 271q0 -44 28.5 -76.5t76.5 -55.5q46 22 73 54.5t27 77.5q0 51 -27.5 82.5t-74.5 31.5t-75 -31.5t-28 -82.5z" />
    <glyph glyph-name="uni066F.fina" unicode="&#x66f;" horiz-adv-x="784" 
d="M347 -247q-71 0 -124.5 18t-89 51t-53.5 79t-18 101q0 42 8.5 78t21.5 65l81 -25q-9 -25 -15 -51.5t-6 -58.5q0 -77 47 -119t148 -42h34q61 0 105.5 9.5t74.5 29.5t46.5 50.5t21.5 72.5h-60q-63 0 -109 13.5t-76.5 37t-45.5 56.5t-15 72q0 38 13.5 71.5t37.5 59t57.5 40
t74.5 14.5q43 0 80.5 -17t65.5 -51.5t45 -87t20 -123.5h67q10 0 17 -12t7 -37q0 -28 -7 -37.5t-17 -9.5h-70q-17 -121 -95.5 -184t-222.5 -63h-49zM403 193q0 -22 8 -39.5t25.5 -30t46 -19t69.5 -6.5h79q-3 52 -14 88.5t-28 58.5t-39 32t-47 10q-44 0 -72 -26t-28 -68z" />
    <glyph glyph-name="uni0671" unicode="&#x671;" horiz-adv-x="236" arabic-form="isolated" 
d="M163 0h-90v722h90v-722zM-6 757v54h38q7 58 40 92.5t83 34.5q40 0 65 -24t25 -62q0 -42 -31.5 -68.5t-100.5 -26.5h-119zM81 812h40q42 0 59 10t17 27q0 37 -45 37q-29 0 -48 -21t-23 -53z" />
    <glyph glyph-name="uni0679" unicode="&#x679;" horiz-adv-x="960" arabic-form="isolated" 
d="M67 217q0 42 10 78t27 65l79 -30q-12 -23 -19 -48.5t-7 -53.5q0 -64 40.5 -98t138.5 -34h278q102 0 143.5 30.5t41.5 88.5q0 41 -17.5 80t-47.5 71l66 74q41 -45 65.5 -102.5t24.5 -123.5q0 -103 -66 -158.5t-203 -55.5h-305q-126 0 -187.5 58.5t-61.5 158.5zM335 413v54
h41v203h49v-104q30 30 72 30t66 -24t24 -65t-30 -67.5t-100 -26.5h-122zM466 468q42 0 58.5 10.5t16.5 27.5q0 19 -13 30t-36 11q-32 0 -50 -22.5t-23 -56.5h47z" />
    <glyph glyph-name="uni067A" unicode="&#x67a;" horiz-adv-x="960" arabic-form="isolated" 
d="M67 217q0 42 10 78t27 65l79 -30q-12 -23 -19 -48.5t-7 -53.5q0 -64 40.5 -98t138.5 -34h278q102 0 143.5 30.5t41.5 88.5q0 41 -17.5 80t-47.5 71l66 74q41 -45 65.5 -102.5t24.5 -123.5q0 -103 -66 -158.5t-203 -55.5h-305q-126 0 -187.5 58.5t-61.5 158.5zM461 548
q-22 0 -36.5 14.5t-14.5 37.5q0 22 14.5 37.5t36.5 15.5q21 0 36.5 -15.5t15.5 -37.5q0 -23 -15.5 -37.5t-36.5 -14.5zM461 419q-22 0 -36.5 15t-14.5 37q0 23 14.5 38t36.5 15q21 0 36.5 -15t15.5 -38q0 -22 -15.5 -37t-36.5 -15z" />
    <glyph glyph-name="uni067B" unicode="&#x67b;" horiz-adv-x="960" arabic-form="isolated" 
d="M67 217q0 42 10 78t27 65l79 -30q-12 -23 -19 -48.5t-7 -53.5q0 -64 40.5 -98t138.5 -34h278q102 0 143.5 30.5t41.5 88.5q0 41 -17.5 80t-47.5 71l66 74q41 -45 65.5 -102.5t24.5 -123.5q0 -103 -66 -158.5t-203 -55.5h-305q-126 0 -187.5 58.5t-61.5 158.5zM456 -161
q-22 0 -36.5 15t-14.5 38q0 22 14.5 37t36.5 15q21 0 36.5 -15t15.5 -37q0 -23 -15.5 -38t-36.5 -15zM456 -290q-22 0 -36.5 15.5t-14.5 37.5q0 23 14.5 37.5t36.5 14.5q21 0 36.5 -14.5t15.5 -37.5q0 -22 -15.5 -37.5t-36.5 -15.5z" />
    <glyph glyph-name="uni067C.init" unicode="&#x67c;" horiz-adv-x="309" 
d="M137 -141q-21 0 -39 8t-31.5 21.5t-21 32t-7.5 39.5q0 22 8 41q-7 -1 -13.5 -1h-14.5h-18q-11 0 -20.5 9.5t-9.5 38.5t9.5 38.5t20.5 9.5h10q138 0 138 118q0 42 -17.5 78.5t-52.5 74.5l66 73q45 -51 69.5 -105t24.5 -118q0 -110 -63 -165q27 -11 44 -36t17 -56
q0 -21 -8 -39.5t-21.5 -32t-31.5 -21.5t-38 -8zM137 -97q24 0 40 17t16 40t-16.5 40t-39.5 17t-39.5 -17t-16.5 -40t16.5 -40t39.5 -17zM199 489q-23 0 -38 15.5t-15 38.5q0 22 15 37t38 15q22 0 37 -15t15 -37q0 -23 -15 -38.5t-37 -15.5zM62 489q-22 0 -37.5 15.5
t-15.5 38.5q0 22 15.5 37t37.5 15t37 -15t15 -37q0 -23 -15 -38.5t-37 -15.5z" />
    <glyph glyph-name="uni067C.medi" unicode="&#x67c;" horiz-adv-x="315" 
d="M86 -153q-21 0 -39 8t-31.5 21.5t-21 32t-7.5 39.5q0 14 4 27.5t10 24.5h-1q-14 0 -22 10t-8 36q0 50 30 50h28q44 0 64.5 19.5t20.5 75.5v142h90v-142q0 -56 20.5 -75.5t62.5 -19.5h29q11 0 20.5 -13t9.5 -36q0 -26 -9.5 -36.5t-20.5 -10.5h-34q-45 0 -77 16t-47 45
q-8 -15 -21 -27q22 -14 35.5 -36t13.5 -50q0 -21 -8 -39.5t-21.5 -32t-31.5 -21.5t-38 -8zM86 -109q24 0 40 17t16 40t-16.5 40t-39.5 17t-39.5 -17t-16.5 -40t16.5 -40t39.5 -17zM228 402q-23 0 -38 15.5t-15 38.5q0 22 15 37t38 15q22 0 37 -15t15 -37q0 -23 -15 -38.5
t-37 -15.5zM91 402q-22 0 -37.5 15.5t-15.5 38.5q0 22 15.5 37t37.5 15t37 -15t15 -37q0 -23 -15 -38.5t-37 -15.5z" />
    <glyph glyph-name="uni067C.fina" unicode="&#x67c;" horiz-adv-x="931" 
d="M428 -163q-21 0 -39 8t-31.5 21.5t-21 32t-7.5 39.5q0 36 21 62h-34q-126 0 -187.5 58.5t-61.5 158.5q0 42 10 78t27 65l79 -30q-12 -23 -19 -48.5t-7 -53.5q0 -64 40.5 -98t138.5 -34h164q64 0 107.5 7.5t69.5 24.5t37 44.5t11 67.5v78h88v-104q0 -35 6.5 -58
t19.5 -36.5t32.5 -18.5t45.5 -5h13q14 0 22.5 -12t8.5 -38t-9 -36t-22 -10h-22q-54 0 -91.5 22t-53.5 66q-27 -42 -87 -65t-169 -23h-2q22 -27 22 -62q0 -21 -8 -39.5t-21.5 -32t-31.5 -21.5t-38 -8zM428 -119q24 0 40 17t16 40t-16.5 40t-39.5 17t-39.5 -17t-16.5 -40
t16.5 -40t39.5 -17zM526 402q-23 0 -38 15.5t-15 38.5q0 22 15 37t38 15q22 0 37 -15t15 -37q0 -23 -15 -38.5t-37 -15.5zM389 402q-22 0 -37.5 15.5t-15.5 38.5q0 22 15.5 37t37.5 15t37 -15t15 -37q0 -23 -15 -38.5t-37 -15.5z" />
    <glyph glyph-name="uni067D.init" unicode="&#x67d;" horiz-adv-x="309" 
d="M144 440q45 -51 69.5 -105t24.5 -118q0 -107 -58.5 -162t-161.5 -55h-18q-11 0 -20.5 9.5t-9.5 38.5t9.5 38.5t20.5 9.5h10q138 0 138 118q0 42 -17.5 78.5t-52.5 74.5zM199 706q21 0 36.5 -15t15.5 -37q0 -23 -15.5 -37.5t-36.5 -14.5t-36.5 14.5t-15.5 37.5
q0 22 15.5 37t36.5 15zM63 706q22 0 37 -15t15 -37q0 -23 -15 -37.5t-37 -14.5q-21 0 -36 14.5t-15 37.5q0 22 15 37t36 15zM131 590q22 0 37 -15t15 -38q0 -22 -15 -36.5t-37 -14.5q-21 0 -36 14.5t-15 36.5q0 23 15 38t36 15z" />
    <glyph glyph-name="uni067D.medi" unicode="&#x67d;" horiz-adv-x="315" 
d="M203 333v-142q0 -56 20.5 -75.5t62.5 -19.5h29q11 0 20.5 -13t9.5 -36q0 -26 -9.5 -36.5t-20.5 -10.5h-34q-45 0 -77 16t-47 45q-15 -29 -48 -45t-77 -16h-32q-14 0 -22 10t-8 36q0 50 30 50h28q44 0 64.5 19.5t20.5 75.5v142h90zM228 619q21 0 36.5 -15t15.5 -37
q0 -23 -15.5 -37.5t-36.5 -14.5t-36.5 14.5t-15.5 37.5q0 22 15.5 37t36.5 15zM92 619q22 0 37 -15t15 -37q0 -23 -15 -37.5t-37 -14.5q-21 0 -36 14.5t-15 37.5q0 22 15 37t36 15zM160 503q22 0 37 -15t15 -38q0 -22 -15 -36.5t-37 -14.5q-21 0 -36 14.5t-15 36.5
q0 23 15 38t36 15z" />
    <glyph glyph-name="uni067D.fina" unicode="&#x67d;" horiz-adv-x="931" 
d="M67 217q0 42 10 78t27 65l79 -30q-12 -23 -19 -48.5t-7 -53.5q0 -64 40.5 -98t138.5 -34h164q64 0 107.5 7.5t69.5 24.5t37 44.5t11 67.5v78h88v-104q0 -35 6.5 -58t19.5 -36.5t32.5 -18.5t45.5 -5h13q14 0 22.5 -12t8.5 -38t-9 -36t-22 -10h-22q-54 0 -91.5 22t-53.5 66
q-27 -42 -87 -65t-169 -23h-191q-126 0 -187.5 58.5t-61.5 158.5zM525 619q21 0 36.5 -15t15.5 -37q0 -23 -15.5 -37.5t-36.5 -14.5t-36.5 14.5t-15.5 37.5q0 22 15.5 37t36.5 15zM389 619q22 0 37 -15t15 -37q0 -23 -15 -37.5t-37 -14.5q-21 0 -36 14.5t-15 37.5
q0 22 15 37t36 15zM457 503q22 0 37 -15t15 -38q0 -22 -15 -36.5t-37 -14.5q-21 0 -36 14.5t-15 36.5q0 23 15 38t36 15z" />
    <glyph glyph-name="uni067E" unicode="&#x67e;" horiz-adv-x="960" arabic-form="isolated" 
d="M67 217q0 42 10 78t27 65l79 -30q-12 -23 -19 -48.5t-7 -53.5q0 -64 40.5 -98t138.5 -34h278q102 0 143.5 30.5t41.5 88.5q0 41 -17.5 80t-47.5 71l66 74q41 -45 65.5 -102.5t24.5 -123.5q0 -103 -66 -158.5t-203 -55.5h-305q-126 0 -187.5 58.5t-61.5 158.5zM523 -56
q22 0 37 -15t15 -37q0 -23 -15 -37.5t-37 -14.5q-21 0 -36 14.5t-15 37.5q0 22 15 37t36 15zM388 -56q22 0 37 -15t15 -37q0 -23 -15 -37.5t-37 -14.5q-21 0 -36 14.5t-15 37.5q0 22 15 37t36 15zM456 -172q22 0 37 -15t15 -38q0 -22 -15 -36.5t-37 -14.5q-21 0 -36 14.5
t-15 36.5q0 23 15 38t36 15z" />
    <glyph glyph-name="uni067F" unicode="&#x67f;" horiz-adv-x="960" arabic-form="isolated" 
d="M67 217q0 42 10 78t27 65l79 -30q-12 -23 -19 -48.5t-7 -53.5q0 -64 40.5 -98t138.5 -34h278q102 0 143.5 30.5t41.5 88.5q0 41 -17.5 80t-47.5 71l66 74q41 -45 65.5 -102.5t24.5 -123.5q0 -103 -66 -158.5t-203 -55.5h-305q-126 0 -187.5 58.5t-61.5 158.5zM527 395
q-21 0 -35.5 15t-14.5 36t14.5 36t35.5 15t35.5 -15t14.5 -36t-14.5 -36t-35.5 -15zM397 395q-21 0 -36 15t-15 36t15 36t36 15q20 0 35 -15t15 -36t-15 -36t-35 -15zM527 526q-21 0 -35.5 15t-14.5 36q0 22 14.5 36.5t35.5 14.5t35.5 -14.5t14.5 -36.5q0 -21 -14.5 -36
t-35.5 -15zM397 526q-21 0 -36 15t-15 36q0 22 15 36.5t36 14.5q20 0 35 -14.5t15 -36.5q0 -21 -15 -36t-35 -15z" />
    <glyph glyph-name="uni0680" unicode="&#x680;" horiz-adv-x="960" arabic-form="isolated" 
d="M67 217q0 42 10 78t27 65l79 -30q-12 -23 -19 -48.5t-7 -53.5q0 -64 40.5 -98t138.5 -34h278q102 0 143.5 30.5t41.5 88.5q0 41 -17.5 80t-47.5 71l66 74q41 -45 65.5 -102.5t24.5 -123.5q0 -103 -66 -158.5t-203 -55.5h-305q-126 0 -187.5 58.5t-61.5 158.5zM525 -291
q-21 0 -35.5 15t-14.5 37q0 21 14.5 35.5t35.5 14.5t35.5 -14.5t14.5 -35.5q0 -22 -14.5 -37t-35.5 -15zM395 -291q-21 0 -36 15t-15 37q0 21 15 35.5t36 14.5q20 0 35 -14.5t15 -35.5q0 -22 -15 -37t-35 -15zM525 -159q-21 0 -35.5 14.5t-14.5 36.5q0 21 14.5 35.5
t35.5 14.5t35.5 -14.5t14.5 -35.5q0 -22 -14.5 -36.5t-35.5 -14.5zM395 -159q-21 0 -36 14.5t-15 36.5q0 21 15 35.5t36 14.5q20 0 35 -14.5t15 -35.5q0 -22 -15 -36.5t-35 -14.5z" />
    <glyph glyph-name="uni0681.init" unicode="&#x681;" horiz-adv-x="742" 
d="M61 96q40 0 75 3t67.5 9t64.5 15t67 22l168 63l-119 68q-24 13 -42.5 22.5t-36 15.5t-34.5 9t-36 3q-45 0 -74.5 -26.5t-39.5 -67.5l-80 25q7 35 23.5 65t41 51.5t56.5 34t69 12.5q25 0 48 -4.5t45.5 -12.5t46.5 -20t51 -28l258 -148l-41 -82l-52 29l-207 -84
q-48 -20 -91 -33t-84 -21.5t-81.5 -12t-83.5 -3.5h-41q-6 0 -11 6t-9 14t-6.5 16t-2.5 13q0 4 2.5 11.5t6.5 15.5t9 14t11 6h62zM152 528q-16 21 -16 53q0 41 28.5 70.5t76.5 29.5q28 0 49.5 -11.5t35.5 -30.5l-34 -44q-20 25 -48 25q-23 0 -38 -14t-15 -36q0 -14 4 -24
t12 -18h139v-60h-231v60h37z" />
    <glyph glyph-name="uni0681.medi" unicode="&#x681;" horiz-adv-x="754" 
d="M-30 49q0 24 9 35.5t21 11.5h56q39 0 71.5 2t65.5 9t70 20t85 34l176 80l-112 50q-29 13 -51.5 21.5t-41 14t-34.5 7.5t-32 2q-54 0 -83.5 -25t-38.5 -68l-81 25q16 74 67.5 118.5t132.5 44.5q24 0 44.5 -2.5t43.5 -9.5t50 -18t65 -28l245 -106l-28 -81l-51 20l-32 -16
q1 -54 22.5 -74t69.5 -20h76q14 0 21.5 -10.5t7.5 -36.5q0 -49 -29 -49h-66q-77 0 -122.5 39.5t-50.5 115.5l-124 -62q-61 -31 -109 -49.5t-89 -28t-79.5 -12.5t-80.5 -3h-34q-12 0 -21 11.5t-9 37.5zM171 539q-16 21 -16 53q0 41 28.5 70.5t76.5 29.5q28 0 49.5 -11.5
t35.5 -30.5l-34 -44q-20 25 -48 25q-23 0 -38 -14t-15 -36q0 -14 4 -24t12 -18h139v-60h-231v60h37z" />
    <glyph glyph-name="uni0681.fina" unicode="&#x681;" horiz-adv-x="735" 
d="M641 192h-54q2 -30 8.5 -49t17.5 -29.5t27.5 -14t38.5 -3.5h56q13 0 21.5 -13.5t8.5 -36.5q0 -26 -8.5 -36t-21.5 -10h-46q-39 0 -70 9t-53 31t-35 59t-15 93h-8q-88 0 -151.5 -21t-105 -55.5t-61 -79t-19.5 -92.5q0 -98 62.5 -156.5t190.5 -58.5q77 0 131.5 23.5
t92.5 62.5l56 -73q-46 -51 -116.5 -80.5t-164.5 -29.5q-82 0 -146 22t-108 61.5t-67 93.5t-23 119q0 67 26 128t77 107.5t127 74t176 27.5q10 0 19.5 -0.5t18.5 -0.5l-122 60q-23 12 -41 20t-34 12.5t-30.5 6.5t-30.5 2q-51 0 -82 -26.5t-43 -72.5l-80 25q17 76 70.5 122
t131.5 46q44 0 87 -14t102 -47l218 -119zM172 566q-16 21 -16 53q0 41 28.5 70.5t76.5 29.5q28 0 49.5 -11.5t35.5 -30.5l-34 -44q-20 25 -48 25q-23 0 -38 -14t-15 -36q0 -14 4 -24t12 -18h139v-60h-231v60h37z" />
    <glyph glyph-name="uni0683" unicode="&#x683;" horiz-adv-x="726" arabic-form="isolated" 
d="M626 234q-7 1 -21 2t-31 1.5l-34 1t-30 0.5q-88 0 -152 -20.5t-105.5 -54t-61.5 -77.5t-20 -91q0 -49 15.5 -89t47 -68t79 -43.5t111.5 -15.5q77 0 131.5 24t92.5 63l56 -73q-46 -51 -116.5 -80.5t-164.5 -29.5q-82 0 -146 22t-108 61.5t-67 93.5t-23 119q0 67 26 128
t77.5 107.5t128 74t178.5 27.5h11.5t11.5 -1l-113 59q-44 23 -73.5 32.5t-60.5 9.5q-51 0 -82 -26.5t-43 -73.5l-80 26q17 76 70.5 122t131.5 46q44 0 86.5 -15t99.5 -47l218 -124zM356 -42q-22 0 -37 15.5t-15 38.5q0 22 15 37t37 15q23 0 38 -15t15 -37q0 -23 -15 -38.5
t-38 -15.5zM493 -42q-23 0 -38 15.5t-15 38.5q0 22 15 37t38 15q22 0 37 -15t15 -37q0 -23 -15 -38.5t-37 -15.5z" />
    <glyph glyph-name="uni0684" unicode="&#x684;" horiz-adv-x="726" arabic-form="isolated" 
d="M626 234q-7 1 -21 2t-31 1.5l-34 1t-30 0.5q-88 0 -152 -20.5t-105.5 -54t-61.5 -77.5t-20 -91q0 -49 15.5 -89t47 -68t79 -43.5t111.5 -15.5q77 0 131.5 24t92.5 63l56 -73q-46 -51 -116.5 -80.5t-164.5 -29.5q-82 0 -146 22t-108 61.5t-67 93.5t-23 119q0 67 26 128
t77.5 107.5t128 74t178.5 27.5h11.5t11.5 -1l-113 59q-44 23 -73.5 32.5t-60.5 9.5q-51 0 -82 -26.5t-43 -73.5l-80 26q17 76 70.5 122t131.5 46q44 0 86.5 -15t99.5 -47l218 -124zM425 -104q-21 0 -35.5 14.5t-14.5 35.5q0 22 14.5 36.5t35.5 14.5q20 0 35 -14.5t15 -36.5
q0 -21 -15 -35.5t-35 -14.5zM425 21q-21 0 -35.5 14.5t-14.5 36.5q0 21 14.5 35.5t35.5 14.5q20 0 35 -14.5t15 -35.5q0 -22 -15 -36.5t-35 -14.5z" />
    <glyph glyph-name="uni0685.init" unicode="&#x685;" horiz-adv-x="742" 
d="M61 96q40 0 75 3t67.5 9t64.5 15t67 22l168 63l-119 68q-24 13 -42.5 22.5t-36 15.5t-34.5 9t-36 3q-45 0 -74.5 -26.5t-39.5 -67.5l-80 25q7 35 23.5 65t41 51.5t56.5 34t69 12.5q25 0 48 -4.5t45.5 -12.5t46.5 -20t51 -28l258 -148l-41 -82l-52 29l-207 -84
q-48 -20 -91 -33t-84 -21.5t-81.5 -12t-83.5 -3.5h-41q-6 0 -11 6t-9 14t-6.5 16t-2.5 13q0 4 2.5 11.5t6.5 15.5t9 14t11 6h62zM300 467q-21 0 -36 15t-15 37t15 37t36 15q22 0 37 -15t15 -37t-15 -37t-37 -15zM164 467q-21 0 -36 15t-15 37t15 37t36 15q22 0 37 -15
t15 -37t-15 -37t-37 -15zM233 583q-21 0 -36 15t-15 37t15 37t36 15q22 0 37 -15t15 -37t-15 -37t-37 -15z" />
    <glyph glyph-name="uni0685.medi" unicode="&#x685;" horiz-adv-x="754" 
d="M-30 49q0 24 9 35.5t21 11.5h56q39 0 71.5 2t65.5 9t70 20t85 34l176 80l-112 50q-29 13 -51.5 21.5t-41 14t-34.5 7.5t-32 2q-54 0 -83.5 -25t-38.5 -68l-81 25q16 74 67.5 118.5t132.5 44.5q24 0 44.5 -2.5t43.5 -9.5t50 -18t65 -28l245 -106l-28 -81l-51 20l-32 -16
q1 -54 22.5 -74t69.5 -20h76q14 0 21.5 -10.5t7.5 -36.5q0 -49 -29 -49h-66q-77 0 -122.5 39.5t-50.5 115.5l-124 -62q-61 -31 -109 -49.5t-89 -28t-79.5 -12.5t-80.5 -3h-34q-12 0 -21 11.5t-9 37.5zM319 482q-21 0 -36 15t-15 37t15 37t36 15q22 0 37 -15t15 -37t-15 -37
t-37 -15zM183 482q-21 0 -36 15t-15 37t15 37t36 15q22 0 37 -15t15 -37t-15 -37t-37 -15zM252 598q-21 0 -36 15t-15 37t15 37t36 15q22 0 37 -15t15 -37t-15 -37t-37 -15z" />
    <glyph glyph-name="uni0685.fina" unicode="&#x685;" horiz-adv-x="735" 
d="M641 192h-54q2 -30 8.5 -49t17.5 -29.5t27.5 -14t38.5 -3.5h56q13 0 21.5 -13.5t8.5 -36.5q0 -26 -8.5 -36t-21.5 -10h-46q-39 0 -70 9t-53 31t-35 59t-15 93h-8q-88 0 -151.5 -21t-105 -55.5t-61 -79t-19.5 -92.5q0 -98 62.5 -156.5t190.5 -58.5q77 0 131.5 23.5
t92.5 62.5l56 -73q-46 -51 -116.5 -80.5t-164.5 -29.5q-82 0 -146 22t-108 61.5t-67 93.5t-23 119q0 67 26 128t77 107.5t127 74t176 27.5q10 0 19.5 -0.5t18.5 -0.5l-122 60q-23 12 -41 20t-34 12.5t-30.5 6.5t-30.5 2q-51 0 -82 -26.5t-43 -72.5l-80 25q17 76 70.5 122
t131.5 46q44 0 87 -14t102 -47l218 -119zM316 506q-21 0 -36 15t-15 37t15 37t36 15q22 0 37 -15t15 -37t-15 -37t-37 -15zM180 506q-21 0 -36 15t-15 37t15 37t36 15q22 0 37 -15t15 -37t-15 -37t-37 -15zM249 622q-21 0 -36 15t-15 37t15 37t36 15q22 0 37 -15t15 -37
t-15 -37t-37 -15z" />
    <glyph glyph-name="uni0686" unicode="&#x686;" horiz-adv-x="726" arabic-form="isolated" 
d="M626 234q-7 1 -21 2t-31 1.5l-34 1t-30 0.5q-88 0 -152 -20.5t-105.5 -54t-61.5 -77.5t-20 -91q0 -49 15.5 -89t47 -68t79 -43.5t111.5 -15.5q77 0 131.5 24t92.5 63l56 -73q-46 -51 -116.5 -80.5t-164.5 -29.5q-82 0 -146 22t-108 61.5t-67 93.5t-23 119q0 67 26 128
t77.5 107.5t128 74t178.5 27.5h11.5t11.5 -1l-113 59q-44 23 -73.5 32.5t-60.5 9.5q-51 0 -82 -26.5t-43 -73.5l-80 26q17 76 70.5 122t131.5 46q44 0 86.5 -15t99.5 -47l218 -124zM423 -13q22 0 37 -15t15 -37t-15 -37t-37 -15q-21 0 -36 15t-15 37t15 37t36 15zM355 103
q22 0 37 -15t15 -37t-15 -37t-37 -15q-21 0 -36 15t-15 37t15 37t36 15zM491 103q22 0 37 -15t15 -37t-15 -37t-37 -15q-21 0 -36 15t-15 37t15 37t36 15z" />
    <glyph glyph-name="uni0687" unicode="&#x687;" horiz-adv-x="726" arabic-form="isolated" 
d="M626 234q-7 1 -21 2t-31 1.5l-34 1t-30 0.5q-88 0 -152 -20.5t-105.5 -54t-61.5 -77.5t-20 -91q0 -49 15.5 -89t47 -68t79 -43.5t111.5 -15.5q77 0 131.5 24t92.5 63l56 -73q-46 -51 -116.5 -80.5t-164.5 -29.5q-82 0 -146 22t-108 61.5t-67 93.5t-23 119q0 67 26 128
t77.5 107.5t128 74t178.5 27.5h11.5t11.5 -1l-113 59q-44 23 -73.5 32.5t-60.5 9.5q-51 0 -82 -26.5t-43 -73.5l-80 26q17 76 70.5 122t131.5 46q44 0 86.5 -15t99.5 -47l218 -124zM364 26q-20 0 -34.5 14t-14.5 35q0 20 14.5 34.5t34.5 14.5t34 -14.5t14 -34.5
q0 -21 -14 -35t-34 -14zM364 -102q-20 0 -34.5 14.5t-14.5 35.5q0 20 14.5 34t34.5 14t34 -14t14 -34q0 -21 -14 -35.5t-34 -14.5zM490 26q-20 0 -34 14t-14 35q0 20 14 34.5t34 14.5t34 -14.5t14 -34.5q0 -21 -14 -35t-34 -14zM490 -102q-20 0 -34 14.5t-14 35.5
q0 20 14 34t34 14t34 -14t14 -34q0 -21 -14 -35.5t-34 -14.5z" />
    <glyph glyph-name="uni0688" unicode="&#x688;" horiz-adv-x="490" arabic-form="isolated" 
d="M54 98q26 -5 60 -9t73 -4q86 0 123.5 28t37.5 82q0 62 -47.5 121t-153.5 115l48 88q122 -66 181.5 -149.5t59.5 -174.5q0 -96 -60.5 -151t-184.5 -55q-42 0 -80 4t-57 9v96zM97 602v54h41v203h49v-104q30 30 72 30t66 -24t24 -65t-30 -67.5t-100 -26.5h-122zM228 657
q42 0 58.5 10.5t16.5 27.5q0 19 -13 30t-36 11q-32 0 -50 -22.5t-23 -56.5h47z" />
    <glyph glyph-name="uni0689.fina" unicode="&#x689;" horiz-adv-x="539" 
d="M211 -170q-21 0 -39 8t-31.5 21.5t-21 32t-7.5 39.5q0 34 19 59q-29 2 -53 5.5t-38 6.5v96q26 -5 59.5 -9t71.5 -4q87 0 121.5 23t34.5 63q0 23 -7 45t-23 60l-84 197l92 36l111 -285q15 -38 28.5 -63t27.5 -39.5t30.5 -20t36.5 -5.5q30 0 30 -50q0 -26 -7 -36t-23 -10
q-96 0 -152 88q-13 -32 -37.5 -54t-67.5 -34q13 -13 20.5 -31t7.5 -38q0 -21 -8 -39.5t-21.5 -32t-31.5 -21.5t-38 -8zM211 -126q24 0 40 17t16 40t-16.5 40t-39.5 17t-39.5 -17t-16.5 -40t16.5 -40t39.5 -17z" />
    <glyph glyph-name="uni068A.fina" unicode="&#x68a;" horiz-adv-x="539" 
d="M40 98q26 -5 59.5 -9t71.5 -4q87 0 121.5 23t34.5 63q0 23 -7 45t-23 60l-84 197l92 36l111 -285q15 -38 28.5 -63t27.5 -39.5t30.5 -20t36.5 -5.5q30 0 30 -50q0 -26 -7 -36t-23 -10q-96 0 -152 88q-19 -48 -67 -73.5t-145 -25.5q-42 0 -79 4t-56 9v96zM255 -224
q-23 0 -39 16t-16 40q0 23 16 39t39 16t39 -16t16 -39q0 -24 -16 -40t-39 -16z" />
    <glyph glyph-name="uni068C" unicode="&#x68c;" horiz-adv-x="490" arabic-form="isolated" 
d="M54 98q26 -5 60 -9t73 -4q86 0 123.5 28t37.5 82q0 62 -47.5 121t-153.5 115l48 88q122 -66 181.5 -149.5t59.5 -174.5q0 -96 -60.5 -151t-184.5 -55q-42 0 -80 4t-57 9v96zM293 592q-23 0 -38 15.5t-15 38.5q0 22 15 37t38 15q22 0 37 -15t15 -37q0 -23 -15 -38.5
t-37 -15.5zM156 592q-22 0 -37.5 15.5t-15.5 38.5q0 22 15.5 37t37.5 15t37 -15t15 -37q0 -23 -15 -38.5t-37 -15.5z" />
    <glyph glyph-name="uni068D" unicode="&#x68d;" horiz-adv-x="490" arabic-form="isolated" 
d="M54 98q26 -5 60 -9t73 -4q86 0 123.5 28t37.5 82q0 62 -47.5 121t-153.5 115l48 88q122 -66 181.5 -149.5t59.5 -174.5q0 -96 -60.5 -151t-184.5 -55q-42 0 -80 4t-57 9v96zM308 -219q-23 0 -38 15.5t-15 38.5t15 38t38 15q22 0 37 -15t15 -38t-15 -38.5t-37 -15.5z
M171 -219q-22 0 -37.5 15.5t-15.5 38.5t15.5 38t37.5 15t37 -15t15 -38t-15 -38.5t-37 -15.5z" />
    <glyph glyph-name="uni068F.fina" unicode="&#x68f;" horiz-adv-x="539" 
d="M40 98q26 -5 59.5 -9t71.5 -4q87 0 121.5 23t34.5 63q0 23 -7 45t-23 60l-84 197l92 36l111 -285q15 -38 28.5 -63t27.5 -39.5t30.5 -20t36.5 -5.5q30 0 30 -50q0 -26 -7 -36t-23 -10q-96 0 -152 88q-19 -48 -67 -73.5t-145 -25.5q-42 0 -79 4t-56 9v96zM334 791
q21 0 36.5 -15t15.5 -37q0 -23 -15.5 -37.5t-36.5 -14.5t-36.5 14.5t-15.5 37.5q0 22 15.5 37t36.5 15zM198 791q22 0 37 -15t15 -37q0 -23 -15 -37.5t-37 -14.5q-21 0 -36 14.5t-15 37.5q0 22 15 37t36 15zM266 675q22 0 37 -15t15 -38q0 -22 -15 -36.5t-37 -14.5
q-21 0 -36 14.5t-15 36.5q0 23 15 38t36 15z" />
    <glyph glyph-name="uni0691" unicode="&#x691;" horiz-adv-x="422" arabic-form="isolated" 
d="M269 291q42 -58 64.5 -125t22.5 -140q0 -62 -17 -111t-47.5 -82.5t-73.5 -51t-94 -17.5q-42 0 -79 10t-57 23l36 83q44 -22 94 -22q71 0 109.5 42t38.5 118q0 58 -21 113.5t-56 102.5zM107 354v54h41v203h49v-104q30 30 72 30t66 -24t24 -65t-30 -67.5t-100 -26.5h-122z
M238 409q42 0 58.5 10.5t16.5 27.5q0 19 -13 30t-36 11q-32 0 -50 -22.5t-23 -56.5h47z" />
    <glyph glyph-name="uni0693.fina" unicode="&#x693;" horiz-adv-x="431" 
d="M250 -368q-21 0 -39 8t-31.5 21.5t-21 32t-7.5 39.5q0 16 5 33q-8 -1 -16 -1.5t-16 -0.5q-42 0 -79 10t-57 23l36 83q44 -22 94 -22q71 0 109.5 42t38.5 118q0 58 -21 113.5t-56 102.5l80 57q63 -89 81 -195h82q10 0 17 -12t7 -37q0 -28 -7 -37.5t-18 -9.5h-76
q-4 -56 -22 -99.5t-48 -73.5q28 -11 46 -36.5t18 -57.5q0 -21 -8 -39.5t-21.5 -32t-31.5 -21.5t-38 -8zM250 -324q24 0 40 17t16 40t-16.5 40t-39.5 17t-39.5 -17t-16.5 -40t16.5 -40t39.5 -17z" />
    <glyph glyph-name="uni0696.fina" unicode="&#x696;" horiz-adv-x="450" 
d="M288 291q63 -89 81 -195h82q10 0 17 -12t7 -37q0 -28 -7 -37.5t-18 -9.5h-76q-3 -56 -21.5 -100t-49 -74t-71.5 -46t-89 -16q-42 0 -79 10t-57 23l36 83q44 -22 94 -22q71 0 109.5 42t38.5 118q0 58 -21 113.5t-56 102.5zM143 -60q-23 0 -39 16.5t-16 39.5t16 39.5
t39 16.5t39 -16.5t16 -39.5t-16 -39.5t-39 -16.5zM313 -364q-23 0 -39 16t-16 40q0 23 16 39t39 16t39 -16t16 -39q0 -24 -16 -40t-39 -16z" />
    <glyph glyph-name="uni0698" unicode="&#x698;" horiz-adv-x="424" arabic-form="isolated" 
d="M269 291q42 -58 64.5 -125t22.5 -140q0 -62 -17 -111t-47.5 -82.5t-73.5 -51t-94 -17.5q-42 0 -79 10t-57 23l36 83q44 -22 94 -22q71 0 109.5 42t38.5 118q0 58 -21 113.5t-56 102.5zM295 365q-21 0 -36 15t-15 37t15 37t36 15q22 0 37 -15t15 -37t-15 -37t-37 -15z
M159 365q-21 0 -36 15t-15 37t15 37t36 15q22 0 37 -15t15 -37t-15 -37t-37 -15zM228 481q-21 0 -36 15t-15 37t15 37t36 15q22 0 37 -15t15 -37t-15 -37t-37 -15z" />
    <glyph glyph-name="uni0699.fina" unicode="&#x699;" horiz-adv-x="431" 
d="M269 291q63 -89 81 -195h82q10 0 17 -12t7 -37q0 -28 -7 -37.5t-18 -9.5h-76q-3 -56 -21.5 -100t-49 -74t-71.5 -46t-89 -16q-42 0 -79 10t-57 23l36 83q44 -22 94 -22q71 0 109.5 42t38.5 118q0 58 -21 113.5t-56 102.5zM291 366q-21 0 -35.5 15t-14.5 36t14.5 36
t35.5 15t35.5 -15t14.5 -36t-14.5 -36t-35.5 -15zM161 366q-21 0 -36 15t-15 36t15 36t36 15q20 0 35 -15t15 -36t-15 -36t-35 -15zM291 497q-21 0 -35.5 15t-14.5 36q0 22 14.5 36.5t35.5 14.5t35.5 -14.5t14.5 -36.5q0 -21 -14.5 -36t-35.5 -15zM161 497q-21 0 -36 15
t-15 36q0 22 15 36.5t36 14.5q20 0 35 -14.5t15 -36.5q0 -21 -15 -36t-35 -15z" />
    <glyph glyph-name="uni069A.init" unicode="&#x69a;" horiz-adv-x="725" 
d="M-30 50q0 22 8 34t22 12q43 0 64 19.5t21 66.5v90h85v-90q0 -46 20.5 -66t59.5 -20q38 0 58.5 20t20.5 66v90h86v-90q0 -47 19 -66.5t60 -19.5q35 0 56.5 21t21.5 66q0 39 -14 70.5t-40 55.5l64 67q37 -34 57 -83.5t20 -108.5q0 -88 -44 -136t-119 -48q-44 0 -75 15.5
t-48 44.5q-17 -29 -50 -44.5t-73 -15.5q-44 0 -74.5 15.5t-47.5 44.5q-17 -29 -49 -44.5t-79 -15.5q-14 0 -22 12t-8 38zM375 -218q-23 0 -39 16t-16 40q0 23 16 39t39 16t39 -16t16 -39q0 -24 -16 -40t-39 -16zM362 378q-23 0 -39 16.5t-16 39.5t16 39.5t39 16.5t39 -16.5
t16 -39.5t-16 -39.5t-39 -16.5z" />
    <glyph glyph-name="uni069A.medi" unicode="&#x69a;" horiz-adv-x="779" 
d="M-30 50q0 22 8 34t22 12q43 0 64 19.5t21 66.5v90h85v-90q0 -47 20.5 -66.5t61.5 -19.5q42 0 62.5 19.5t20.5 66.5v90h86v-90q0 -47 19 -66.5t60 -19.5t60.5 19.5t19.5 66.5v117h85v-118q0 -46 24.5 -65.5t89.5 -19.5q15 0 22.5 -15.5t7.5 -34.5q0 -20 -7.5 -33
t-22.5 -13q-69 0 -104 15.5t-52 44.5q-17 -29 -46 -44.5t-77 -15.5q-45 0 -75 15.5t-47 44.5q-17 -29 -49 -44.5t-77 -15.5q-44 0 -75.5 15.5t-48.5 44.5q-17 -29 -49 -44.5t-79 -15.5q-14 0 -22 12t-8 38zM377 -218q-23 0 -39 16t-16 40q0 23 16 39t39 16t39 -16t16 -39
q0 -24 -16 -40t-39 -16zM375 378q-23 0 -39 16.5t-16 39.5t16 39.5t39 16.5t39 -16.5t16 -39.5t-16 -39.5t-39 -16.5z" />
    <glyph glyph-name="uni069A.fina" unicode="&#x69a;" horiz-adv-x="1206" 
d="M62 42q0 42 8.5 78t21.5 65l81 -25q-9 -25 -15 -51.5t-6 -58.5q0 -77 46.5 -119t143.5 -42q93 0 143 41.5t50 121.5q0 51 -16 93t-51 81l68 72q34 -38 56 -85.5t30 -103.5q17 -13 57 -13q43 0 63 19.5t20 66.5v90h86v-90q0 -47 19.5 -66.5t60.5 -19.5t60 19.5t19 66.5
v117h85v-118q0 -46 25 -65.5t89 -19.5q16 0 23 -15.5t7 -34.5q0 -20 -7.5 -33t-22.5 -13q-69 0 -103.5 15.5t-51.5 44.5q-18 -29 -47 -44.5t-76 -15.5q-45 0 -75.5 15.5t-47.5 44.5q-17 -29 -49 -44.5t-77 -15.5q-36 0 -58 11q-13 -101 -81 -159.5t-200 -58.5q-69 0 -121 18
t-87 51t-52.5 79t-17.5 101zM795 -218q-23 0 -39 16t-16 40q0 23 16 39t39 16t39 -16t16 -39q0 -24 -16 -40t-39 -16zM801 378q-23 0 -39 16.5t-16 39.5t16 39.5t39 16.5t39 -16.5t16 -39.5t-16 -39.5t-39 -16.5z" />
    <glyph glyph-name="uni06A1.init" unicode="&#x6a1;" horiz-adv-x="505" 
d="M117 96q110 0 165 23t71 82h-52q-131 0 -192.5 49.5t-61.5 128.5q0 38 13.5 71.5t38 59t58 40t73.5 14.5q46 0 85 -19t67.5 -57t44.5 -94t16 -129q0 -131 -77.5 -198t-249.5 -67h-116q-13 0 -21.5 10.5t-8.5 37.5q0 29 8.5 38.5t21.5 9.5h117zM128 381q0 -22 8 -39.5
t26.5 -29.5t48.5 -18.5t74 -6.5h75q-3 98 -41 143t-92 45q-44 0 -71.5 -25t-27.5 -69z" />
    <glyph glyph-name="uni06A1.medi" unicode="&#x6a1;" horiz-adv-x="495" 
d="M248 477q39 0 72 -14.5t57.5 -40t38.5 -61.5t14 -79q0 -55 -21.5 -98t-58.5 -76q60 -12 128 -12h18q11 0 20 -11.5t9 -37.5q0 -23 -9.5 -35t-20.5 -12q-67 0 -130.5 11t-117.5 34q-54 -23 -117.5 -34t-129.5 -11q-11 0 -20.5 12t-9.5 35q0 26 10 37.5t21 11.5h17
q33 0 65 2.5t62 8.5q-38 33 -59 76.5t-21 98.5q0 42 14 78t39 62t58 40.5t72 14.5zM145 271q0 -44 28.5 -76.5t76.5 -55.5q46 22 73 54.5t27 77.5q0 51 -27.5 82.5t-74.5 31.5t-75 -31.5t-28 -82.5z" />
    <glyph glyph-name="uni06A1.fina" unicode="&#x6a1;" horiz-adv-x="999" 
d="M316 0q-126 0 -187.5 58.5t-61.5 158.5q0 42 10 78t27 65l79 -30q-12 -23 -19 -48.5t-7 -53.5q0 -64 40.5 -98t138.5 -34h93q60 0 113 4t99 12q-34 32 -52.5 74.5t-18.5 95.5q0 43 14 79t39 61.5t58 40t72 14.5q38 0 71 -14t57.5 -39.5t38.5 -61.5t14 -80q0 -54 -22 -97
t-64 -76q61 -13 134 -13h17q11 0 20.5 -11.5t9.5 -37.5q0 -23 -9.5 -35t-20.5 -12q-72 0 -138.5 12t-122.5 37q-66 -25 -148.5 -37t-179.5 -12h-94zM649 274q0 -43 26.5 -75.5t71.5 -55.5q51 22 79.5 54t28.5 77q0 49 -28 80t-74 31q-48 0 -76 -31t-28 -80z" />
    <glyph glyph-name="uni06A4" unicode="&#x6a4;" horiz-adv-x="969" arabic-form="isolated" 
d="M183 330q-12 -23 -19 -48.5t-7 -53.5q0 -64 40.5 -98t138.5 -34h228q58 0 100.5 5.5t71.5 17.5t47 32t26 50h-51q-131 0 -192.5 49.5t-61.5 128.5q0 38 13.5 71.5t37.5 59t57.5 40t74.5 14.5q46 0 84.5 -19t67 -57t44.5 -94t16 -129q0 -66 -19 -116t-59.5 -83
t-104.5 -49.5t-154 -16.5h-246q-126 0 -187.5 58.5t-61.5 158.5q0 42 10 78t27 65zM584 381q0 -22 8 -39.5t26.5 -29.5t48.5 -18.5t74 -6.5h75q-3 98 -40.5 143t-91.5 45q-44 0 -72 -25t-28 -69zM752 618q-21 0 -36 15t-15 37t15 37t36 15q22 0 37 -15t15 -37t-15 -37
t-37 -15zM616 618q-21 0 -36 15t-15 37t15 37t36 15q22 0 37 -15t15 -37t-15 -37t-37 -15zM685 734q-21 0 -36 15t-15 37t15 37t36 15q22 0 37 -15t15 -37t-15 -37t-37 -15z" />
    <glyph glyph-name="uni06A6" unicode="&#x6a6;" horiz-adv-x="969" arabic-form="isolated" 
d="M183 330q-12 -23 -19 -48.5t-7 -53.5q0 -64 40.5 -98t138.5 -34h228q58 0 100.5 5.5t71.5 17.5t47 32t26 50h-51q-131 0 -192.5 49.5t-61.5 128.5q0 38 13.5 71.5t37.5 59t57.5 40t74.5 14.5q46 0 84.5 -19t67 -57t44.5 -94t16 -129q0 -66 -19 -116t-59.5 -83
t-104.5 -49.5t-154 -16.5h-246q-126 0 -187.5 58.5t-61.5 158.5q0 42 10 78t27 65zM584 381q0 -22 8 -39.5t26.5 -29.5t48.5 -18.5t74 -6.5h75q-3 98 -40.5 143t-91.5 45q-44 0 -72 -25t-28 -69zM749 618q-21 0 -35.5 15t-14.5 36t14.5 36t35.5 15t35.5 -15t14.5 -36
t-14.5 -36t-35.5 -15zM619 618q-21 0 -36 15t-15 36t15 36t36 15q20 0 35 -15t15 -36t-15 -36t-35 -15zM749 749q-21 0 -35.5 15t-14.5 36q0 22 14.5 36.5t35.5 14.5t35.5 -14.5t14.5 -36.5q0 -21 -14.5 -36t-35.5 -15zM619 749q-21 0 -36 15t-15 36q0 22 15 36.5t36 14.5
q20 0 35 -14.5t15 -36.5q0 -21 -15 -36t-35 -15z" />
    <glyph glyph-name="uni06A9" unicode="&#x6a9;" horiz-adv-x="1005" arabic-form="isolated" 
d="M67 217q0 42 10 78t27 65l79 -30q-12 -23 -19 -48.5t-7 -53.5q0 -64 40.5 -98t138.5 -34h213q104 0 151 36.5t47 97.5q0 60 -48.5 104t-154.5 62v96l360 248l74 -54l-340 -233q101 -32 149.5 -91.5t48.5 -135.5q0 -50 -19 -91.5t-55 -71.5t-88 -46.5t-118 -16.5h-240
q-126 0 -187.5 58.5t-61.5 158.5z" />
    <glyph glyph-name="uni06AA.init" unicode="&#x6aa;" horiz-adv-x="1091" 
d="M0 0q-10 0 -17.5 9.5t-7.5 38.5q0 24 7.5 36t17.5 12h776q87 0 125 25t38 72q0 45 -38 72.5t-125 27.5h-607l-58 76l232 324l68 -50l-184 -257h548q126 0 188.5 -52.5t62.5 -141.5t-63 -140.5t-191 -51.5h-682h-3h-87z" />
    <glyph glyph-name="uni06AA.medi" unicode="&#x6aa;" horiz-adv-x="1115" 
d="M0 0q-10 0 -17.5 9.5t-7.5 38.5q0 24 7.5 36t17.5 12h776q87 0 125 25t38 72q0 45 -38 72.5t-125 27.5h-607l-58 76l232 324l68 -50l-184 -257h548q126 0 188.5 -52.5t62.5 -141.5q0 -36 -11 -67q14 -29 59 -29h40q14 0 22.5 -10t8.5 -38q0 -26 -9.5 -37t-21.5 -11h-38
q-80 0 -114 51q-65 -51 -190 -51h-772z" />
    <glyph glyph-name="uni06AA.fina" unicode="&#x6aa;" horiz-adv-x="1107" 
d="M45 96h723q87 0 125 25t38 72q0 45 -38 72.5t-125 27.5h-607l-58 76l232 324l68 -50l-184 -257h548q126 0 188.5 -52.5t62.5 -141.5q0 -36 -11 -67q14 -29 59 -29h40q14 0 22.5 -10t8.5 -38q0 -26 -9.5 -37t-21.5 -11h-38q-80 0 -114 51q-65 -51 -190 -51h-703z" />
    <glyph glyph-name="uni06AB.init" unicode="&#x6ab;" horiz-adv-x="487" 
d="M317 417q-21 0 -39 8t-31.5 21.5t-21 32t-7.5 39.5v3l-97 -66q100 -31 148.5 -91t48.5 -138q0 -50 -19 -91.5t-55 -71.5t-88 -46.5t-118 -16.5h-38q-14 0 -22 10t-8 38q0 29 8 38.5t22 9.5h31q104 0 151 36.5t47 97.5q0 60 -48.5 104t-154.5 62v96l360 248l74 -54
l-109 -74q28 -11 46.5 -36.5t18.5 -57.5q0 -21 -8 -39.5t-21.5 -32t-31.5 -21.5t-38 -8zM317 461q24 0 40 17t16 40t-16.5 40t-39.5 17t-39.5 -17t-16.5 -40t16.5 -40t39.5 -17z" />
    <glyph glyph-name="uni06AB.medi" unicode="&#x6ab;" horiz-adv-x="600" 
d="M336 417q-21 0 -39 8t-31.5 21.5t-21 32t-7.5 39.5l-95 -65l220 -228q39 -40 68.5 -65t54.5 -39.5t47.5 -19.5t47.5 -5h21q11 0 20 -10t9 -39q0 -26 -9 -36.5t-21 -10.5h-25q-31 0 -60.5 7t-59.5 22.5t-62 41t-68 62.5l-42 44q-8 -91 -68 -134t-175 -43h-40
q-14 0 -22 10.5t-8 36.5q0 29 8 39t21 10h39q92 0 131.5 25.5t39.5 75.5q0 19 -5 36.5t-21.5 40t-48 55t-85.5 82.5v83l356 246l74 -54l-108 -75q28 -11 46 -36t18 -57q0 -21 -8 -39.5t-21.5 -32t-31.5 -21.5t-38 -8zM336 461q24 0 40 17t16 40t-16.5 40t-39.5 17t-39.5 -17
t-16.5 -40t16.5 -40t39.5 -17z" />
    <glyph glyph-name="uni06AB.fina" unicode="&#x6ab;" horiz-adv-x="1107" 
d="M851 417q-21 0 -39 8t-31.5 21.5t-21 32t-7.5 39.5v2l-97 -67l220 -228q39 -40 68.5 -65t54.5 -39.5t48 -19.5t48 -5h13q11 0 20.5 -10t9.5 -39q0 -26 -9 -36.5t-21 -10.5h-19q-30 0 -59.5 7t-60 22.5t-62.5 41t-68 62.5l-42 44q-8 -91 -68 -134t-175 -43h-237
q-126 0 -187.5 58.5t-61.5 158.5q0 42 10 78t27 65l79 -30q-12 -23 -19 -48.5t-7 -53.5q0 -64 40.5 -98t138.5 -34h216q92 0 131 25.5t39 75.5q0 19 -5 36.5t-21.5 40t-48 55t-84.5 82.5v83l356 246l73 -54l-107 -74q28 -11 46.5 -36.5t18.5 -57.5q0 -21 -8 -39.5t-21.5 -32
t-31.5 -21.5t-38 -8zM851 461q24 0 40 17t16 40t-16.5 40t-39.5 17t-39.5 -17t-16.5 -40t16.5 -40t39.5 -17z" />
    <glyph glyph-name="uni06AF" unicode="&#x6af;" horiz-adv-x="1005" arabic-form="isolated" 
d="M67 217q0 42 10 78t27 65l79 -30q-12 -23 -19 -48.5t-7 -53.5q0 -64 40.5 -98t138.5 -34h213q104 0 151 36.5t47 97.5q0 60 -48.5 104t-154.5 62v96l360 248l74 -54l-340 -233q101 -32 149.5 -91.5t48.5 -135.5q0 -50 -19 -91.5t-55 -71.5t-88 -46.5t-118 -16.5h-240
q-126 0 -187.5 58.5t-61.5 158.5zM544 613l274 192l41 -31l-315 -218v57z" />
    <glyph glyph-name="uni06B1" unicode="&#x6b1;" horiz-adv-x="1005" arabic-form="isolated" 
d="M67 217q0 42 10 78t27 65l79 -30q-12 -23 -19 -48.5t-7 -53.5q0 -64 40.5 -98t138.5 -34h213q104 0 151 36.5t47 97.5q0 60 -48.5 104t-154.5 62v96l360 248l74 -54l-340 -233q101 -32 149.5 -91.5t48.5 -135.5q0 -50 -19 -91.5t-55 -71.5t-88 -46.5t-118 -16.5h-240
q-126 0 -187.5 58.5t-61.5 158.5zM544 613l274 192l41 -31l-315 -218v57zM709 782q-20 0 -34 14t-14 35q0 20 14 33.5t34 13.5t33.5 -13.5t13.5 -33.5q0 -21 -13.5 -35t-33.5 -14zM592 704q-20 0 -34 14t-14 34t14 34t34 14t33.5 -14t13.5 -34t-13.5 -34t-33.5 -14z" />
    <glyph glyph-name="uni06B3" unicode="&#x6b3;" horiz-adv-x="1005" arabic-form="isolated" 
d="M67 217q0 42 10 78t27 65l79 -30q-12 -23 -19 -48.5t-7 -53.5q0 -64 40.5 -98t138.5 -34h213q104 0 151 36.5t47 97.5q0 60 -48.5 104t-154.5 62v96l360 248l74 -54l-340 -233q101 -32 149.5 -91.5t48.5 -135.5q0 -50 -19 -91.5t-55 -71.5t-88 -46.5t-118 -16.5h-240
q-126 0 -187.5 58.5t-61.5 158.5zM544 613l274 192l41 -31l-315 -218v57zM436 -161q-22 0 -36.5 15t-14.5 38q0 22 14.5 37t36.5 15q21 0 36.5 -15t15.5 -37q0 -23 -15.5 -38t-36.5 -15zM436 -290q-22 0 -36.5 15.5t-14.5 37.5q0 23 14.5 37.5t36.5 14.5q21 0 36.5 -14.5
t15.5 -37.5q0 -22 -15.5 -37.5t-36.5 -15.5z" />
    <glyph glyph-name="uni06BA" unicode="&#x6ba;" horiz-adv-x="697" arabic-form="isolated" 
d="M62 117q0 42 8.5 78t21.5 65l81 -25q-9 -25 -15 -51t-6 -58q0 -78 46.5 -119.5t143.5 -41.5q94 0 143.5 41.5t49.5 123.5q0 49 -16 90.5t-51 80.5l68 72q43 -45 67.5 -107t24.5 -132q0 -62 -19 -111t-55.5 -83.5t-90.5 -53t-123 -18.5t-121 18t-87 51t-52.5 79t-17.5 101
z" />
    <glyph glyph-name="uni06BB" unicode="&#x6bb;" horiz-adv-x="697" arabic-form="isolated" 
d="M62 117q0 42 8.5 78t21.5 65l81 -25q-9 -25 -15 -51t-6 -58q0 -78 46.5 -119.5t143.5 -41.5q94 0 143.5 41.5t49.5 123.5q0 49 -16 90.5t-51 80.5l68 72q43 -45 67.5 -107t24.5 -132q0 -62 -19 -111t-55.5 -83.5t-90.5 -53t-123 -18.5t-121 18t-87 51t-52.5 79t-17.5 101
zM210 382v54h41v203h49v-104q30 30 72 30t66 -24t24 -65t-30 -67.5t-100 -26.5h-122zM341 437q42 0 58.5 10.5t16.5 27.5q0 19 -13 30t-36 11q-32 0 -50 -22.5t-23 -56.5h47z" />
    <glyph glyph-name="uni06BC.init" unicode="&#x6bc;" horiz-adv-x="309" 
d="M137 -141q-21 0 -39 8t-31.5 21.5t-21 32t-7.5 39.5q0 22 8 41q-7 -1 -13.5 -1h-14.5h-18q-11 0 -20.5 9.5t-9.5 38.5t9.5 38.5t20.5 9.5h10q138 0 138 118q0 42 -17.5 78.5t-52.5 74.5l66 73q45 -51 69.5 -105t24.5 -118q0 -110 -63 -165q27 -11 44 -36t17 -56
q0 -21 -8 -39.5t-21.5 -32t-31.5 -21.5t-38 -8zM137 -97q24 0 40 17t16 40t-16.5 40t-39.5 17t-39.5 -17t-16.5 -40t16.5 -40t39.5 -17zM129 489q-23 0 -39 16.5t-16 39.5t16 39.5t39 16.5t39 -16.5t16 -39.5t-16 -39.5t-39 -16.5z" />
    <glyph glyph-name="uni06BC.medi" unicode="&#x6bc;" horiz-adv-x="315" 
d="M86 -153q-21 0 -39 8t-31.5 21.5t-21 32t-7.5 39.5q0 14 4 27.5t10 24.5h-1q-14 0 -22 10t-8 36q0 50 30 50h28q44 0 64.5 19.5t20.5 75.5v142h90v-142q0 -56 20.5 -75.5t62.5 -19.5h29q11 0 20.5 -13t9.5 -36q0 -26 -9.5 -36.5t-20.5 -10.5h-34q-45 0 -77 16t-47 45
q-8 -15 -21 -27q22 -14 35.5 -36t13.5 -50q0 -21 -8 -39.5t-21.5 -32t-31.5 -21.5t-38 -8zM86 -109q24 0 40 17t16 40t-16.5 40t-39.5 17t-39.5 -17t-16.5 -40t16.5 -40t39.5 -17zM158 402q-23 0 -39 16.5t-16 39.5t16 39.5t39 16.5t39 -16.5t16 -39.5t-16 -39.5t-39 -16.5z
" />
    <glyph glyph-name="uni06BC.fina" unicode="&#x6bc;" horiz-adv-x="679" 
d="M338 -369q-21 0 -39 8t-31.5 21.5t-21 32t-7.5 39.5q0 40 25 68q-101 18 -151.5 83t-50.5 159q0 42 8.5 78t21.5 65l81 -25q-9 -25 -15 -51.5t-6 -58.5q0 -76 46.5 -118.5t143.5 -42.5q93 0 143 42t50 124q0 48 -16 90t-51 81l68 72q34 -38 56 -85.5t30 -103.5
q17 -13 57 -13q14 0 22 -11.5t8 -37.5q0 -27 -8 -37t-22 -10q-36 0 -58 11q-11 -87 -64.5 -141.5t-145.5 -70.5q12 -13 19 -30t7 -37q0 -21 -8 -39.5t-21.5 -32t-31.5 -21.5t-38 -8zM338 -325q24 0 40 17t16 40t-16.5 40t-39.5 17t-39.5 -17t-16.5 -40t16.5 -40t39.5 -17z
M341 281q-23 0 -39 16.5t-16 39.5t16 39.5t39 16.5t39 -16.5t16 -39.5t-16 -39.5t-39 -16.5z" />
    <glyph glyph-name="uni06BE" unicode="&#x6be;" horiz-adv-x="715" arabic-form="isolated" 
d="M55 96q76 0 135 9q-32 34 -50.5 75t-18.5 88q0 51 20.5 92t53.5 66l-20 10l32 79l268 -126q87 -40 130.5 -90.5t43.5 -120.5q0 -85 -50.5 -131.5t-141.5 -46.5q-95 0 -172 37q-94 -37 -230 -37v96zM189 262q0 -43 26 -77t68 -57q100 41 100 135q0 27 -8.5 47t-22 33.5
t-31 20.5t-36.5 7q-38 0 -67 -27.5t-29 -81.5zM451 269q0 -107 -72 -174q34 -6 72 -6q68 0 96.5 25t28.5 63t-24.5 68.5t-90.5 61.5l-15 6q5 -23 5 -44z" />
    <glyph glyph-name="uni06C0" unicode="&#x6c0;" horiz-adv-x="562" arabic-form="isolated" 
d="M67 213q0 54 16 99t44.5 77.5t68 50.5t85.5 18t85 -18t67.5 -50.5t44.5 -77.5t16 -99q0 -53 -15 -95t-42.5 -71.5t-67 -45.5t-88.5 -16t-88.5 16t-67.5 45.5t-43 71.5t-15 95zM151 213q0 -62 33 -96t97 -34t97 34t33 96q0 70 -37.5 109.5t-92.5 39.5t-92.5 -39.5
t-37.5 -109.5zM202 583q-16 21 -16 53q0 41 28.5 70.5t76.5 29.5q28 0 49.5 -11.5t35.5 -30.5l-34 -44q-20 25 -48 25q-23 0 -38 -14t-15 -36q0 -14 4 -24t12 -18h139v-60h-231v60h37z" />
    <glyph glyph-name="uni06C1" unicode="&#x6c1;" horiz-adv-x="562" arabic-form="isolated" 
d="M67 213q0 54 16 99t44.5 77.5t68 50.5t85.5 18t85 -18t67.5 -50.5t44.5 -77.5t16 -99q0 -53 -15 -95t-42.5 -71.5t-67 -45.5t-88.5 -16t-88.5 16t-67.5 45.5t-43 71.5t-15 95zM151 213q0 -62 33 -96t97 -34t97 34t33 96q0 70 -37.5 109.5t-92.5 39.5t-92.5 -39.5
t-37.5 -109.5z" />
    <glyph glyph-name="uni06C2.init" unicode="&#x6c2;" horiz-adv-x="293" 
d="M144 440q45 -51 69.5 -105t24.5 -118q0 -107 -58.5 -162t-161.5 -55h-18q-11 0 -20.5 9.5t-9.5 38.5t9.5 38.5t20.5 9.5h10q138 0 138 118q0 42 -17.5 78.5t-52.5 74.5zM51 -69h73q0 -48 13.5 -90t42.5 -77l-65 -36q-30 31 -47.5 79.5t-17.5 99.5v12.5t1 11.5zM51 563
q-16 21 -16 53q0 41 28.5 70.5t76.5 29.5q28 0 49.5 -11.5t35.5 -30.5l-34 -44q-20 25 -48 25q-23 0 -38 -14t-15 -36q0 -14 4 -24t12 -18h139v-60h-231v60h37z" />
    <glyph glyph-name="uni06C2.medi" unicode="&#x6c2;" horiz-adv-x="429" 
d="M429 96q14 0 22 -9t8 -38q0 -28 -9 -38.5t-21 -10.5q-55 0 -85.5 -22.5t-30.5 -64.5q0 -37 24 -63l-58 -58q-75 23 -121 82.5t-54 141.5q-10 -6 -33 -11t-49 -5h-22q-14 0 -22 11t-8 37q0 27 8 37.5t22 10.5h25q62 0 91 24.5t29 66.5q0 62 -48 110l67 65q69 -72 69 -173
q0 -43 -15.5 -77.5t-40.5 -56.5q1 -58 21 -96t61 -61q-2 9 -4 20.5t-2 25.5q0 68 47 110t129 42zM125 -219h73q0 -48 13.5 -90t42.5 -77l-65 -36q-30 31 -47.5 79.5t-17.5 99.5v12.5t1 11.5zM74 473q-16 21 -16 53q0 41 28.5 70.5t76.5 29.5q28 0 49.5 -11.5t35.5 -30.5
l-34 -44q-20 25 -48 25q-23 0 -38 -14t-15 -36q0 -14 4 -24t12 -18h139v-60h-231v60h37z" />
    <glyph glyph-name="uni06C2.fina" unicode="&#x6c2;" horiz-adv-x="529" 
d="M434 451v-232q0 -38 4 -61.5t15 -37.5t29 -19t47 -5q14 0 22 -11t8 -36q0 -26 -8 -37.5t-22 -11.5q-68 0 -107 26t-51 74q-20 -32 -57.5 -50.5t-90.5 -18.5q-41 0 -74 13t-56 35.5t-35.5 53t-12.5 66.5q0 40 16.5 76.5t52.5 65t93 46t138 19.5v45h89zM345 325
q-64 0 -106 -10.5t-66.5 -27.5t-34.5 -38.5t-10 -42.5q0 -43 28.5 -67.5t76.5 -24.5q49 0 80.5 27t31.5 78v106zM288 580q-16 21 -16 53q0 41 28.5 70.5t76.5 29.5q28 0 49.5 -11.5t35.5 -30.5l-34 -44q-20 25 -48 25q-23 0 -38 -14t-15 -36q0 -14 4 -24t12 -18h139v-60
h-231v60h37z" />
    <glyph glyph-name="uni06C3.fina" unicode="&#x6c3;" horiz-adv-x="529" 
d="M434 451v-232q0 -38 4 -61.5t15 -37.5t29 -19t47 -5q14 0 22 -11t8 -36q0 -26 -8 -37.5t-22 -11.5q-68 0 -107 26t-51 74q-20 -32 -57.5 -50.5t-90.5 -18.5q-41 0 -74 13t-56 35.5t-35.5 53t-12.5 66.5q0 40 16.5 76.5t52.5 65t93 46t138 19.5v45h89zM345 325
q-64 0 -106 -10.5t-66.5 -27.5t-34.5 -38.5t-10 -42.5q0 -43 28.5 -67.5t76.5 -24.5q49 0 80.5 27t31.5 78v106zM437 506q-23 0 -38 15.5t-15 38.5q0 22 15 37t38 15q22 0 37 -15t15 -37q0 -23 -15 -38.5t-37 -15.5zM300 506q-22 0 -37.5 15.5t-15.5 38.5q0 22 15.5 37
t37.5 15t37 -15t15 -37q0 -23 -15 -38.5t-37 -15.5z" />
    <glyph glyph-name="uni06CC" unicode="&#x6cc;" horiz-adv-x="738" arabic-form="isolated" 
d="M608 358q-38 47 -98 47q-49 0 -77.5 -27.5t-28.5 -64.5q0 -24 8.5 -39.5t23 -26t33.5 -17.5t39 -14q37 -12 67.5 -25.5t52 -32.5t33.5 -45t12 -62q0 -43 -18 -80t-55.5 -64.5t-96.5 -43t-140 -15.5q-79 0 -136.5 17.5t-94.5 49.5t-54.5 76.5t-17.5 99.5q0 37 8 69t19 56
l81 -28q-8 -20 -12.5 -42.5t-4.5 -46.5q0 -78 53 -116t165 -38q114 0 164.5 29t50.5 71q0 19 -8 32.5t-21.5 23t-31.5 16.5t-37 13q-29 9 -59 21t-55 31t-41 48.5t-16 73.5q0 37 14 72t40 62t63 43t84 16q51 0 89 -19t61 -51z" />
    <glyph glyph-name="uni06CD.fina" unicode="&#x6cd;" horiz-adv-x="763" 
d="M0 99l173 63v1h1l80 -28q-8 -20 -12.5 -42.5t-4.5 -46.5q0 -79 53 -116.5t165 -37.5q58 0 96.5 8t61.5 21.5t32.5 31.5t9.5 39q0 15 -5 27t-17.5 23t-33.5 23t-52 27l34 80l59 -30q30 -16 50 -25t33.5 -13.5t22 -6t16.5 -1.5q14 0 22 -12.5t8 -35.5q0 -27 -7.5 -37.5
t-22.5 -10.5q-16 0 -29 8q4 -10 4 -31q0 -36 -16.5 -69t-51 -58t-89.5 -40t-131 -15q-79 0 -136.5 17.5t-94.5 49.5t-54.5 76.5t-17.5 99.5v15.5t1 15.5l-147 -54v84z" />
    <glyph glyph-name="uni06D0" unicode="&#x6d0;" horiz-adv-x="738" arabic-form="isolated" 
d="M608 358q-38 47 -98 47q-49 0 -77.5 -27.5t-28.5 -64.5q0 -24 8.5 -39.5t23 -26t33.5 -17.5t39 -14q37 -12 67.5 -25.5t52 -32.5t33.5 -45t12 -62q0 -43 -18 -80t-55.5 -64.5t-96.5 -43t-140 -15.5q-79 0 -136.5 17.5t-94.5 49.5t-54.5 76.5t-17.5 99.5q0 37 8 69t19 56
l81 -28q-8 -20 -12.5 -42.5t-4.5 -46.5q0 -78 53 -116t165 -38q114 0 164.5 29t50.5 71q0 19 -8 32.5t-21.5 23t-31.5 16.5t-37 13q-29 9 -59 21t-55 31t-41 48.5t-16 73.5q0 37 14 72t40 62t63 43t84 16q51 0 89 -19t61 -51zM360 -312q-22 0 -36.5 15t-14.5 38
q0 22 14.5 37t36.5 15q21 0 36.5 -15t15.5 -37q0 -23 -15.5 -38t-36.5 -15zM360 -441q-22 0 -36.5 15.5t-14.5 37.5q0 23 14.5 37.5t36.5 14.5q21 0 36.5 -14.5t15.5 -37.5q0 -22 -15.5 -37.5t-36.5 -15.5z" />
    <glyph glyph-name="uni06D2" unicode="&#x6d2;" horiz-adv-x="909" arabic-form="isolated" 
d="M879 0h-607q-55 0 -95.5 12.5t-67 35t-39.5 52.5t-13 66q0 29 8 55t27 50.5t50.5 48t79.5 48.5q35 18 57 38.5t39 40.5q13 15 26 28t29 23t36.5 16t49.5 6q60 0 98.5 -37t54.5 -115l-89 -22q-10 43 -28 60.5t-47 17.5q-28 0 -44.5 -13.5t-33.5 -36.5q-17 -21 -40.5 -45.5
t-66.5 -45.5q-37 -19 -60 -34t-36 -28.5t-17.5 -27t-4.5 -28.5t5.5 -27.5t19.5 -22t37.5 -14.5t59.5 -5h612v-96z" />
    <glyph glyph-name="uni06D3" unicode="&#x6d3;" horiz-adv-x="909" arabic-form="isolated" 
d="M879 0h-607q-55 0 -95.5 12.5t-67 35t-39.5 52.5t-13 66q0 29 8 55t27 50.5t50.5 48t79.5 48.5q35 18 57 38.5t39 40.5q13 15 26 28t29 23t36.5 16t49.5 6q60 0 98.5 -37t54.5 -115l-89 -22q-10 43 -28 60.5t-47 17.5q-28 0 -44.5 -13.5t-33.5 -36.5q-17 -21 -40.5 -45.5
t-66.5 -45.5q-37 -19 -60 -34t-36 -28.5t-17.5 -27t-4.5 -28.5t5.5 -27.5t19.5 -22t37.5 -14.5t59.5 -5h612v-96zM375 625q-16 21 -16 53q0 41 28.5 70.5t76.5 29.5q28 0 49.5 -11.5t35.5 -30.5l-34 -44q-20 25 -48 25q-23 0 -38 -14t-15 -36q0 -14 4 -24t12 -18h139v-60
h-231v60h37z" />
    <glyph glyph-name="uniFB51" unicode="&#x671;" horiz-adv-x="245" arabic-form="final" 
d="M163 722v-535q0 -51 18.5 -71t63.5 -20q13 0 21.5 -12.5t8.5 -35.5q0 -28 -8.5 -38t-21.5 -10q-172 0 -172 176v546h90zM-5 757v54h38q7 58 40 92.5t83 34.5q40 0 65 -24t25 -62q0 -42 -31.5 -68.5t-100.5 -26.5h-119zM82 812h40q42 0 59 10t17 27q0 37 -45 37
q-29 0 -48 -21t-23 -53z" />
    <glyph glyph-name="uniFB53" unicode="&#x67b;" horiz-adv-x="931" arabic-form="final" 
d="M67 217q0 42 10 78t27 65l79 -30q-12 -23 -19 -48.5t-7 -53.5q0 -64 40.5 -98t138.5 -34h164q64 0 107.5 7.5t69.5 24.5t37 44.5t11 67.5v78h88v-104q0 -35 6.5 -58t19.5 -36.5t32.5 -18.5t45.5 -5h13q14 0 22.5 -12t8.5 -38t-9 -36t-22 -10h-22q-54 0 -91.5 22t-53.5 66
q-27 -42 -87 -65t-169 -23h-191q-126 0 -187.5 58.5t-61.5 158.5zM425 -161q-22 0 -36.5 15t-14.5 38q0 22 14.5 37t36.5 15q21 0 36.5 -15t15.5 -37q0 -23 -15.5 -38t-36.5 -15zM425 -290q-22 0 -36.5 15.5t-14.5 37.5q0 23 14.5 37.5t36.5 14.5q21 0 36.5 -14.5
t15.5 -37.5q0 -22 -15.5 -37.5t-36.5 -15.5z" />
    <glyph glyph-name="uniFB54" unicode="&#x67b;" horiz-adv-x="309" arabic-form="initial" 
d="M144 440q45 -51 69.5 -105t24.5 -118q0 -107 -58.5 -162t-161.5 -55h-18q-11 0 -20.5 9.5t-9.5 38.5t9.5 38.5t20.5 9.5h10q138 0 138 118q0 42 -17.5 78.5t-52.5 74.5zM157 -161q-22 0 -36.5 15t-14.5 38q0 22 14.5 37t36.5 15q21 0 36.5 -15t15.5 -37q0 -23 -15.5 -38
t-36.5 -15zM157 -290q-22 0 -36.5 15.5t-14.5 37.5q0 23 14.5 37.5t36.5 14.5q21 0 36.5 -14.5t15.5 -37.5q0 -22 -15.5 -37.5t-36.5 -15.5z" />
    <glyph glyph-name="uniFB55" unicode="&#x67b;" horiz-adv-x="315" arabic-form="medial" 
d="M203 333v-142q0 -56 20.5 -75.5t62.5 -19.5h29q11 0 20.5 -13t9.5 -36q0 -26 -9.5 -36.5t-20.5 -10.5h-34q-45 0 -77 16t-47 45q-15 -29 -48 -45t-77 -16h-32q-14 0 -22 10t-8 36q0 50 30 50h28q44 0 64.5 19.5t20.5 75.5v142h90zM157 -161q-22 0 -36.5 15t-14.5 38
q0 22 14.5 37t36.5 15q21 0 36.5 -15t15.5 -37q0 -23 -15.5 -38t-36.5 -15zM157 -290q-22 0 -36.5 15.5t-14.5 37.5q0 23 14.5 37.5t36.5 14.5q21 0 36.5 -14.5t15.5 -37.5q0 -22 -15.5 -37.5t-36.5 -15.5z" />
    <glyph glyph-name="uniFB57" unicode="&#x67e;" horiz-adv-x="931" arabic-form="final" 
d="M67 217q0 42 10 78t27 65l79 -30q-12 -23 -19 -48.5t-7 -53.5q0 -64 40.5 -98t138.5 -34h164q64 0 107.5 7.5t69.5 24.5t37 44.5t11 67.5v78h88v-104q0 -35 6.5 -58t19.5 -36.5t32.5 -18.5t45.5 -5h13q14 0 22.5 -12t8.5 -38t-9 -36t-22 -10h-22q-54 0 -91.5 22t-53.5 66
q-27 -42 -87 -65t-169 -23h-191q-126 0 -187.5 58.5t-61.5 158.5zM492 -56q22 0 37 -15t15 -37q0 -23 -15 -37.5t-37 -14.5q-21 0 -36 14.5t-15 37.5q0 22 15 37t36 15zM357 -56q22 0 37 -15t15 -37q0 -23 -15 -37.5t-37 -14.5q-21 0 -36 14.5t-15 37.5q0 22 15 37t36 15z
M425 -172q22 0 37 -15t15 -38q0 -22 -15 -36.5t-37 -14.5q-21 0 -36 14.5t-15 36.5q0 23 15 38t36 15z" />
    <glyph glyph-name="uniFB58" unicode="&#x67e;" horiz-adv-x="309" arabic-form="initial" 
d="M144 440q45 -51 69.5 -105t24.5 -118q0 -107 -58.5 -162t-161.5 -55h-18q-11 0 -20.5 9.5t-9.5 38.5t9.5 38.5t20.5 9.5h10q138 0 138 118q0 42 -17.5 78.5t-52.5 74.5zM225 -56q22 0 37 -15t15 -37q0 -23 -15 -37.5t-37 -14.5q-21 0 -36 14.5t-15 37.5q0 22 15 37t36 15
zM90 -56q22 0 37 -15t15 -37q0 -23 -15 -37.5t-37 -14.5q-21 0 -36 14.5t-15 37.5q0 22 15 37t36 15zM158 -172q22 0 37 -15t15 -38q0 -22 -15 -36.5t-37 -14.5q-21 0 -36 14.5t-15 36.5q0 23 15 38t36 15z" />
    <glyph glyph-name="uniFB59" unicode="&#x67e;" horiz-adv-x="315" arabic-form="medial" 
d="M203 333v-142q0 -56 20.5 -75.5t62.5 -19.5h29q11 0 20.5 -13t9.5 -36q0 -26 -9.5 -36.5t-20.5 -10.5h-34q-45 0 -77 16t-47 45q-15 -29 -48 -45t-77 -16h-32q-14 0 -22 10t-8 36q0 50 30 50h28q44 0 64.5 19.5t20.5 75.5v142h90zM225 -56q22 0 37 -15t15 -37
q0 -23 -15 -37.5t-37 -14.5q-21 0 -36 14.5t-15 37.5q0 22 15 37t36 15zM90 -56q22 0 37 -15t15 -37q0 -23 -15 -37.5t-37 -14.5q-21 0 -36 14.5t-15 37.5q0 22 15 37t36 15zM158 -172q22 0 37 -15t15 -38q0 -22 -15 -36.5t-37 -14.5q-21 0 -36 14.5t-15 36.5q0 23 15 38
t36 15z" />
    <glyph glyph-name="uniFB5B" unicode="&#x680;" horiz-adv-x="931" arabic-form="final" 
d="M67 217q0 42 10 78t27 65l79 -30q-12 -23 -19 -48.5t-7 -53.5q0 -64 40.5 -98t138.5 -34h164q64 0 107.5 7.5t69.5 24.5t37 44.5t11 67.5v78h88v-104q0 -35 6.5 -58t19.5 -36.5t32.5 -18.5t45.5 -5h13q14 0 22.5 -12t8.5 -38t-9 -36t-22 -10h-22q-54 0 -91.5 22t-53.5 66
q-27 -42 -87 -65t-169 -23h-191q-126 0 -187.5 58.5t-61.5 158.5zM494 -291q-21 0 -35.5 15t-14.5 37q0 21 14.5 35.5t35.5 14.5t35.5 -14.5t14.5 -35.5q0 -22 -14.5 -37t-35.5 -15zM364 -291q-21 0 -36 15t-15 37q0 21 15 35.5t36 14.5q20 0 35 -14.5t15 -35.5
q0 -22 -15 -37t-35 -15zM494 -159q-21 0 -35.5 14.5t-14.5 36.5q0 21 14.5 35.5t35.5 14.5t35.5 -14.5t14.5 -35.5q0 -22 -14.5 -36.5t-35.5 -14.5zM364 -159q-21 0 -36 14.5t-15 36.5q0 21 15 35.5t36 14.5q20 0 35 -14.5t15 -35.5q0 -22 -15 -36.5t-35 -14.5z" />
    <glyph glyph-name="uniFB5C" unicode="&#x680;" horiz-adv-x="309" arabic-form="initial" 
d="M144 440q45 -51 69.5 -105t24.5 -118q0 -107 -58.5 -162t-161.5 -55h-18q-11 0 -20.5 9.5t-9.5 38.5t9.5 38.5t20.5 9.5h10q138 0 138 118q0 42 -17.5 78.5t-52.5 74.5zM227 -291q-21 0 -35.5 15t-14.5 37q0 21 14.5 35.5t35.5 14.5t35.5 -14.5t14.5 -35.5
q0 -22 -14.5 -37t-35.5 -15zM97 -291q-21 0 -36 15t-15 37q0 21 15 35.5t36 14.5q20 0 35 -14.5t15 -35.5q0 -22 -15 -37t-35 -15zM227 -159q-21 0 -35.5 14.5t-14.5 36.5q0 21 14.5 35.5t35.5 14.5t35.5 -14.5t14.5 -35.5q0 -22 -14.5 -36.5t-35.5 -14.5zM97 -159
q-21 0 -36 14.5t-15 36.5q0 21 15 35.5t36 14.5q20 0 35 -14.5t15 -35.5q0 -22 -15 -36.5t-35 -14.5z" />
    <glyph glyph-name="uniFB5D" unicode="&#x680;" horiz-adv-x="315" arabic-form="medial" 
d="M203 333v-142q0 -56 20.5 -75.5t62.5 -19.5h29q11 0 20.5 -13t9.5 -36q0 -26 -9.5 -36.5t-20.5 -10.5h-34q-45 0 -77 16t-47 45q-15 -29 -48 -45t-77 -16h-32q-14 0 -22 10t-8 36q0 50 30 50h28q44 0 64.5 19.5t20.5 75.5v142h90zM227 -291q-21 0 -35.5 15t-14.5 37
q0 21 14.5 35.5t35.5 14.5t35.5 -14.5t14.5 -35.5q0 -22 -14.5 -37t-35.5 -15zM97 -291q-21 0 -36 15t-15 37q0 21 15 35.5t36 14.5q20 0 35 -14.5t15 -35.5q0 -22 -15 -37t-35 -15zM227 -159q-21 0 -35.5 14.5t-14.5 36.5q0 21 14.5 35.5t35.5 14.5t35.5 -14.5t14.5 -35.5
q0 -22 -14.5 -36.5t-35.5 -14.5zM97 -159q-21 0 -36 14.5t-15 36.5q0 21 15 35.5t36 14.5q20 0 35 -14.5t15 -35.5q0 -22 -15 -36.5t-35 -14.5z" />
    <glyph glyph-name="uniFB5F" unicode="&#x67a;" horiz-adv-x="931" arabic-form="final" 
d="M67 217q0 42 10 78t27 65l79 -30q-12 -23 -19 -48.5t-7 -53.5q0 -64 40.5 -98t138.5 -34h164q64 0 107.5 7.5t69.5 24.5t37 44.5t11 67.5v78h88v-104q0 -35 6.5 -58t19.5 -36.5t32.5 -18.5t45.5 -5h13q14 0 22.5 -12t8.5 -38t-9 -36t-22 -10h-22q-54 0 -91.5 22t-53.5 66
q-27 -42 -87 -65t-169 -23h-191q-126 0 -187.5 58.5t-61.5 158.5zM456 548q-22 0 -36.5 14.5t-14.5 37.5q0 22 14.5 37.5t36.5 15.5q21 0 36.5 -15.5t15.5 -37.5q0 -23 -15.5 -37.5t-36.5 -14.5zM456 419q-22 0 -36.5 15t-14.5 37q0 23 14.5 38t36.5 15q21 0 36.5 -15
t15.5 -38q0 -22 -15.5 -37t-36.5 -15z" />
    <glyph glyph-name="uniFB60" unicode="&#x67a;" horiz-adv-x="309" arabic-form="initial" 
d="M144 440q45 -51 69.5 -105t24.5 -118q0 -107 -58.5 -162t-161.5 -55h-18q-11 0 -20.5 9.5t-9.5 38.5t9.5 38.5t20.5 9.5h10q138 0 138 118q0 42 -17.5 78.5t-52.5 74.5zM129 635q-22 0 -36.5 14.5t-14.5 37.5q0 22 14.5 37.5t36.5 15.5q21 0 36.5 -15.5t15.5 -37.5
q0 -23 -15.5 -37.5t-36.5 -14.5zM129 506q-22 0 -36.5 15t-14.5 37q0 23 14.5 38t36.5 15q21 0 36.5 -15t15.5 -38q0 -22 -15.5 -37t-36.5 -15z" />
    <glyph glyph-name="uniFB61" unicode="&#x67a;" horiz-adv-x="315" arabic-form="medial" 
d="M203 333v-142q0 -56 20.5 -75.5t62.5 -19.5h29q11 0 20.5 -13t9.5 -36q0 -26 -9.5 -36.5t-20.5 -10.5h-34q-45 0 -77 16t-47 45q-15 -29 -48 -45t-77 -16h-32q-14 0 -22 10t-8 36q0 50 30 50h28q44 0 64.5 19.5t20.5 75.5v142h90zM158 548q-22 0 -36.5 14.5t-14.5 37.5
q0 22 14.5 37.5t36.5 15.5q21 0 36.5 -15.5t15.5 -37.5q0 -23 -15.5 -37.5t-36.5 -14.5zM158 419q-22 0 -36.5 15t-14.5 37q0 23 14.5 38t36.5 15q21 0 36.5 -15t15.5 -38q0 -22 -15.5 -37t-36.5 -15z" />
    <glyph glyph-name="uniFB63" unicode="&#x67f;" horiz-adv-x="931" arabic-form="final" 
d="M67 217q0 42 10 78t27 65l79 -30q-12 -23 -19 -48.5t-7 -53.5q0 -64 40.5 -98t138.5 -34h164q64 0 107.5 7.5t69.5 24.5t37 44.5t11 67.5v78h88v-104q0 -35 6.5 -58t19.5 -36.5t32.5 -18.5t45.5 -5h13q14 0 22.5 -12t8.5 -38t-9 -36t-22 -10h-22q-54 0 -91.5 22t-53.5 66
q-27 -42 -87 -65t-169 -23h-191q-126 0 -187.5 58.5t-61.5 158.5zM522 395q-21 0 -35.5 15t-14.5 36t14.5 36t35.5 15t35.5 -15t14.5 -36t-14.5 -36t-35.5 -15zM392 395q-21 0 -36 15t-15 36t15 36t36 15q20 0 35 -15t15 -36t-15 -36t-35 -15zM522 526q-21 0 -35.5 15
t-14.5 36q0 22 14.5 36.5t35.5 14.5t35.5 -14.5t14.5 -36.5q0 -21 -14.5 -36t-35.5 -15zM392 526q-21 0 -36 15t-15 36q0 22 15 36.5t36 14.5q20 0 35 -14.5t15 -36.5q0 -21 -15 -36t-35 -15z" />
    <glyph glyph-name="uniFB64" unicode="&#x67f;" horiz-adv-x="309" arabic-form="initial" 
d="M144 440q45 -51 69.5 -105t24.5 -118q0 -107 -58.5 -162t-161.5 -55h-18q-11 0 -20.5 9.5t-9.5 38.5t9.5 38.5t20.5 9.5h10q138 0 138 118q0 42 -17.5 78.5t-52.5 74.5zM196 482q-21 0 -35.5 15t-14.5 36t14.5 36t35.5 15t35.5 -15t14.5 -36t-14.5 -36t-35.5 -15zM66 482
q-21 0 -36 15t-15 36t15 36t36 15q20 0 35 -15t15 -36t-15 -36t-35 -15zM196 613q-21 0 -35.5 15t-14.5 36q0 22 14.5 36.5t35.5 14.5t35.5 -14.5t14.5 -36.5q0 -21 -14.5 -36t-35.5 -15zM66 613q-21 0 -36 15t-15 36q0 22 15 36.5t36 14.5q20 0 35 -14.5t15 -36.5
q0 -21 -15 -36t-35 -15z" />
    <glyph glyph-name="uniFB65" unicode="&#x67f;" horiz-adv-x="315" arabic-form="medial" 
d="M203 333v-142q0 -56 20.5 -75.5t62.5 -19.5h29q11 0 20.5 -13t9.5 -36q0 -26 -9.5 -36.5t-20.5 -10.5h-34q-45 0 -77 16t-47 45q-15 -29 -48 -45t-77 -16h-32q-14 0 -22 10t-8 36q0 50 30 50h28q44 0 64.5 19.5t20.5 75.5v142h90zM225 395q-21 0 -35.5 15t-14.5 36
t14.5 36t35.5 15t35.5 -15t14.5 -36t-14.5 -36t-35.5 -15zM95 395q-21 0 -36 15t-15 36t15 36t36 15q20 0 35 -15t15 -36t-15 -36t-35 -15zM225 526q-21 0 -35.5 15t-14.5 36q0 22 14.5 36.5t35.5 14.5t35.5 -14.5t14.5 -36.5q0 -21 -14.5 -36t-35.5 -15zM95 526
q-21 0 -36 15t-15 36q0 22 15 36.5t36 14.5q20 0 35 -14.5t15 -36.5q0 -21 -15 -36t-35 -15z" />
    <glyph glyph-name="uniFB67" unicode="&#x679;" horiz-adv-x="931" arabic-form="final" 
d="M67 217q0 42 10 78t27 65l79 -30q-12 -23 -19 -48.5t-7 -53.5q0 -64 40.5 -98t138.5 -34h164q64 0 107.5 7.5t69.5 24.5t37 44.5t11 67.5v78h88v-104q0 -35 6.5 -58t19.5 -36.5t32.5 -18.5t45.5 -5h13q14 0 22.5 -12t8.5 -38t-9 -36t-22 -10h-22q-54 0 -91.5 22t-53.5 66
q-27 -42 -87 -65t-169 -23h-191q-126 0 -187.5 58.5t-61.5 158.5zM330 413v54h41v203h49v-104q30 30 72 30t66 -24t24 -65t-30 -67.5t-100 -26.5h-122zM461 468q42 0 58.5 10.5t16.5 27.5q0 19 -13 30t-36 11q-32 0 -50 -22.5t-23 -56.5h47z" />
    <glyph glyph-name="uniFB68" unicode="&#x679;" horiz-adv-x="309" arabic-form="initial" 
d="M144 440q45 -51 69.5 -105t24.5 -118q0 -107 -58.5 -162t-161.5 -55h-18q-11 0 -20.5 9.5t-9.5 38.5t9.5 38.5t20.5 9.5h10q138 0 138 118q0 42 -17.5 78.5t-52.5 74.5zM4 499v54h41v203h49v-104q30 30 72 30t66 -24t24 -65t-30 -67.5t-100 -26.5h-122zM135 554
q42 0 58.5 10.5t16.5 27.5q0 19 -13 30t-36 11q-32 0 -50 -22.5t-23 -56.5h47z" />
    <glyph glyph-name="uniFB69" unicode="&#x679;" horiz-adv-x="315" arabic-form="medial" 
d="M203 333v-142q0 -56 20.5 -75.5t62.5 -19.5h29q11 0 20.5 -13t9.5 -36q0 -26 -9.5 -36.5t-20.5 -10.5h-34q-45 0 -77 16t-47 45q-15 -29 -48 -45t-77 -16h-32q-14 0 -22 10t-8 36q0 50 30 50h28q44 0 64.5 19.5t20.5 75.5v142h90zM33 413v54h41v203h49v-104q30 30 72 30
t66 -24t24 -65t-30 -67.5t-100 -26.5h-122zM164 468q42 0 58.5 10.5t16.5 27.5q0 19 -13 30t-36 11q-32 0 -50 -22.5t-23 -56.5h47z" />
    <glyph glyph-name="uniFB6B" unicode="&#x6a4;" horiz-adv-x="999" arabic-form="final" 
d="M316 0q-126 0 -187.5 58.5t-61.5 158.5q0 42 10 78t27 65l79 -30q-12 -23 -19 -48.5t-7 -53.5q0 -64 40.5 -98t138.5 -34h93q60 0 113 4t99 12q-34 32 -52.5 74.5t-18.5 95.5q0 43 14 79t39 61.5t58 40t72 14.5q38 0 71 -14t57.5 -39.5t38.5 -61.5t14 -80q0 -54 -22 -97
t-64 -76q61 -13 134 -13h17q11 0 20.5 -11.5t9.5 -37.5q0 -23 -9.5 -35t-20.5 -12q-72 0 -138.5 12t-122.5 37q-66 -25 -148.5 -37t-179.5 -12h-94zM649 274q0 -43 26.5 -75.5t71.5 -55.5q51 22 79.5 54t28.5 77q0 49 -28 80t-74 31q-48 0 -76 -31t-28 -80zM823 535
q-21 0 -36 15t-15 37t15 37t36 15q22 0 37 -15t15 -37t-15 -37t-37 -15zM687 535q-21 0 -36 15t-15 37t15 37t36 15q22 0 37 -15t15 -37t-15 -37t-37 -15zM756 651q-21 0 -36 15t-15 37t15 37t36 15q22 0 37 -15t15 -37t-15 -37t-37 -15z" />
    <glyph glyph-name="uniFB6C" unicode="&#x6a4;" horiz-adv-x="505" arabic-form="initial" 
d="M117 96q110 0 165 23t71 82h-52q-131 0 -192.5 49.5t-61.5 128.5q0 38 13.5 71.5t38 59t58 40t73.5 14.5q46 0 85 -19t67.5 -57t44.5 -94t16 -129q0 -131 -77.5 -198t-249.5 -67h-116q-13 0 -21.5 10.5t-8.5 37.5q0 29 8.5 38.5t21.5 9.5h117zM128 381q0 -22 8 -39.5
t26.5 -29.5t48.5 -18.5t74 -6.5h75q-3 98 -41 143t-92 45q-44 0 -71.5 -25t-27.5 -69zM296 618q-21 0 -36 15t-15 37t15 37t36 15q22 0 37 -15t15 -37t-15 -37t-37 -15zM160 618q-21 0 -36 15t-15 37t15 37t36 15q22 0 37 -15t15 -37t-15 -37t-37 -15zM229 734q-21 0 -36 15
t-15 37t15 37t36 15q22 0 37 -15t15 -37t-15 -37t-37 -15z" />
    <glyph glyph-name="uniFB6D" unicode="&#x6a4;" horiz-adv-x="495" arabic-form="medial" 
d="M248 477q39 0 72 -14.5t57.5 -40t38.5 -61.5t14 -79q0 -55 -21.5 -98t-58.5 -76q60 -12 128 -12h18q11 0 20 -11.5t9 -37.5q0 -23 -9.5 -35t-20.5 -12q-67 0 -130.5 11t-117.5 34q-54 -23 -117.5 -34t-129.5 -11q-11 0 -20.5 12t-9.5 35q0 26 10 37.5t21 11.5h17
q33 0 65 2.5t62 8.5q-38 33 -59 76.5t-21 98.5q0 42 14 78t39 62t58 40.5t72 14.5zM145 271q0 -44 28.5 -76.5t76.5 -55.5q46 22 73 54.5t27 77.5q0 51 -27.5 82.5t-74.5 31.5t-75 -31.5t-28 -82.5zM317 535q-21 0 -36 15t-15 37t15 37t36 15q22 0 37 -15t15 -37t-15 -37
t-37 -15zM181 535q-21 0 -36 15t-15 37t15 37t36 15q22 0 37 -15t15 -37t-15 -37t-37 -15zM250 651q-21 0 -36 15t-15 37t15 37t36 15q22 0 37 -15t15 -37t-15 -37t-37 -15z" />
    <glyph glyph-name="uniFB6F" unicode="&#x6a6;" horiz-adv-x="999" arabic-form="final" 
d="M316 0q-126 0 -187.5 58.5t-61.5 158.5q0 42 10 78t27 65l79 -30q-12 -23 -19 -48.5t-7 -53.5q0 -64 40.5 -98t138.5 -34h93q60 0 113 4t99 12q-34 32 -52.5 74.5t-18.5 95.5q0 43 14 79t39 61.5t58 40t72 14.5q38 0 71 -14t57.5 -39.5t38.5 -61.5t14 -80q0 -54 -22 -97
t-64 -76q61 -13 134 -13h17q11 0 20.5 -11.5t9.5 -37.5q0 -23 -9.5 -35t-20.5 -12q-72 0 -138.5 12t-122.5 37q-66 -25 -148.5 -37t-179.5 -12h-94zM649 274q0 -43 26.5 -75.5t71.5 -55.5q51 22 79.5 54t28.5 77q0 49 -28 80t-74 31q-48 0 -76 -31t-28 -80zM820 535
q-21 0 -35.5 15t-14.5 36t14.5 36t35.5 15t35.5 -15t14.5 -36t-14.5 -36t-35.5 -15zM690 535q-21 0 -36 15t-15 36t15 36t36 15q20 0 35 -15t15 -36t-15 -36t-35 -15zM820 666q-21 0 -35.5 15t-14.5 36q0 22 14.5 36.5t35.5 14.5t35.5 -14.5t14.5 -36.5q0 -21 -14.5 -36
t-35.5 -15zM690 666q-21 0 -36 15t-15 36q0 22 15 36.5t36 14.5q20 0 35 -14.5t15 -36.5q0 -21 -15 -36t-35 -15z" />
    <glyph glyph-name="uniFB70" unicode="&#x6a6;" horiz-adv-x="505" arabic-form="initial" 
d="M117 96q110 0 165 23t71 82h-52q-131 0 -192.5 49.5t-61.5 128.5q0 38 13.5 71.5t38 59t58 40t73.5 14.5q46 0 85 -19t67.5 -57t44.5 -94t16 -129q0 -131 -77.5 -198t-249.5 -67h-116q-13 0 -21.5 10.5t-8.5 37.5q0 29 8.5 38.5t21.5 9.5h117zM128 381q0 -22 8 -39.5
t26.5 -29.5t48.5 -18.5t74 -6.5h75q-3 98 -41 143t-92 45q-44 0 -71.5 -25t-27.5 -69zM293 618q-21 0 -35.5 15t-14.5 36t14.5 36t35.5 15t35.5 -15t14.5 -36t-14.5 -36t-35.5 -15zM163 618q-21 0 -36 15t-15 36t15 36t36 15q20 0 35 -15t15 -36t-15 -36t-35 -15zM293 749
q-21 0 -35.5 15t-14.5 36q0 22 14.5 36.5t35.5 14.5t35.5 -14.5t14.5 -36.5q0 -21 -14.5 -36t-35.5 -15zM163 749q-21 0 -36 15t-15 36q0 22 15 36.5t36 14.5q20 0 35 -14.5t15 -36.5q0 -21 -15 -36t-35 -15z" />
    <glyph glyph-name="uniFB71" unicode="&#x6a6;" horiz-adv-x="495" arabic-form="medial" 
d="M248 477q39 0 72 -14.5t57.5 -40t38.5 -61.5t14 -79q0 -55 -21.5 -98t-58.5 -76q60 -12 128 -12h18q11 0 20 -11.5t9 -37.5q0 -23 -9.5 -35t-20.5 -12q-67 0 -130.5 11t-117.5 34q-54 -23 -117.5 -34t-129.5 -11q-11 0 -20.5 12t-9.5 35q0 26 10 37.5t21 11.5h17
q33 0 65 2.5t62 8.5q-38 33 -59 76.5t-21 98.5q0 42 14 78t39 62t58 40.5t72 14.5zM145 271q0 -44 28.5 -76.5t76.5 -55.5q46 22 73 54.5t27 77.5q0 51 -27.5 82.5t-74.5 31.5t-75 -31.5t-28 -82.5zM314 535q-21 0 -35.5 15t-14.5 36t14.5 36t35.5 15t35.5 -15t14.5 -36
t-14.5 -36t-35.5 -15zM184 535q-21 0 -36 15t-15 36t15 36t36 15q20 0 35 -15t15 -36t-15 -36t-35 -15zM314 666q-21 0 -35.5 15t-14.5 36q0 22 14.5 36.5t35.5 14.5t35.5 -14.5t14.5 -36.5q0 -21 -14.5 -36t-35.5 -15zM184 666q-21 0 -36 15t-15 36q0 22 15 36.5t36 14.5
q20 0 35 -14.5t15 -36.5q0 -21 -15 -36t-35 -15z" />
    <glyph glyph-name="uniFB73" unicode="&#x684;" horiz-adv-x="735" arabic-form="final" 
d="M641 192h-44q2 -30 8.5 -49t18 -29.5t28 -14t38.5 -3.5h45q13 0 21.5 -13.5t8.5 -36.5q0 -26 -9 -36t-21 -10h-35q-39 0 -70 9t-53.5 31t-35.5 59t-15 93h-18q-88 0 -151.5 -21t-105 -55.5t-61 -79t-19.5 -92.5q0 -98 62.5 -156.5t190.5 -58.5q77 0 131.5 23.5t92.5 62.5
l56 -73q-46 -51 -116.5 -80.5t-164.5 -29.5q-82 0 -146 22t-108 61.5t-67 93.5t-23 119q0 67 26 128t77 107.5t127 74t176 27.5q10 0 19.5 -0.5t18.5 -0.5l-122 60q-23 12 -41 20t-34 12.5t-30.5 6.5t-30.5 2q-51 0 -82 -26.5t-43 -72.5l-80 25q17 76 70.5 122t131.5 46
q44 0 87 -14t102 -47l218 -119zM413 -37q-21 0 -35.5 14.5t-14.5 36.5q0 21 14.5 35.5t35.5 14.5t35.5 -14.5t14.5 -35.5q0 -22 -14.5 -36.5t-35.5 -14.5zM413 -162q-21 0 -35.5 14.5t-14.5 35.5q0 22 14.5 36.5t35.5 14.5t35.5 -14.5t14.5 -36.5q0 -21 -14.5 -35.5
t-35.5 -14.5z" />
    <glyph glyph-name="uniFB74" unicode="&#x684;" horiz-adv-x="742" arabic-form="initial" 
d="M61 96q40 0 75 3t67.5 9t64.5 15t67 22l168 63l-119 68q-24 13 -42.5 22.5t-36 15.5t-34.5 9t-36 3q-45 0 -74.5 -26.5t-39.5 -67.5l-80 25q7 35 23.5 65t41 51.5t56.5 34t69 12.5q25 0 48 -4.5t45.5 -12.5t46.5 -20t51 -28l258 -148l-41 -82l-52 29l-207 -84
q-48 -20 -91 -33t-84 -21.5t-81.5 -12t-83.5 -3.5h-41q-6 0 -11 6t-9 14t-6.5 16t-2.5 13q0 4 2.5 11.5t6.5 15.5t9 14t11 6h62zM339 -198q-22 0 -36.5 15t-14.5 38q0 22 14.5 37t36.5 15q21 0 36.5 -15t15.5 -37q0 -23 -15.5 -38t-36.5 -15zM339 -327q-22 0 -36.5 15.5
t-14.5 37.5q0 23 14.5 37.5t36.5 14.5q21 0 36.5 -14.5t15.5 -37.5q0 -22 -15.5 -37.5t-36.5 -15.5z" />
    <glyph glyph-name="uniFB75" unicode="&#x684;" horiz-adv-x="754" arabic-form="medial" 
d="M-30 49q0 24 9 35.5t21 11.5h56q39 0 71.5 2t65.5 9t70 20t85 34l176 80l-112 50q-29 13 -51.5 21.5t-41 14t-34.5 7.5t-32 2q-54 0 -83.5 -25t-38.5 -68l-81 25q16 74 67.5 118.5t132.5 44.5q24 0 44.5 -2.5t43.5 -9.5t50 -18t65 -28l245 -106l-28 -81l-51 20l-32 -16
q1 -54 22.5 -74t69.5 -20h76q14 0 21.5 -10.5t7.5 -36.5q0 -49 -29 -49h-66q-77 0 -122.5 39.5t-50.5 115.5l-124 -62q-61 -31 -109 -49.5t-89 -28t-79.5 -12.5t-80.5 -3h-34q-12 0 -21 11.5t-9 37.5zM395 -198q-22 0 -36.5 15t-14.5 38q0 22 14.5 37t36.5 15q21 0 36.5 -15
t15.5 -37q0 -23 -15.5 -38t-36.5 -15zM395 -327q-22 0 -36.5 15.5t-14.5 37.5q0 23 14.5 37.5t36.5 14.5q21 0 36.5 -14.5t15.5 -37.5q0 -22 -15.5 -37.5t-36.5 -15.5z" />
    <glyph glyph-name="uniFB77" unicode="&#x683;" horiz-adv-x="735" arabic-form="final" 
d="M641 192h-44q2 -30 8.5 -49t18 -29.5t28 -14t38.5 -3.5h45q13 0 21.5 -13.5t8.5 -36.5q0 -26 -9 -36t-21 -10h-35q-39 0 -70 9t-53.5 31t-35.5 59t-15 93h-18q-88 0 -151.5 -21t-105 -55.5t-61 -79t-19.5 -92.5q0 -98 62.5 -156.5t190.5 -58.5q77 0 131.5 23.5t92.5 62.5
l56 -73q-46 -51 -116.5 -80.5t-164.5 -29.5q-82 0 -146 22t-108 61.5t-67 93.5t-23 119q0 67 26 128t77 107.5t127 74t176 27.5q10 0 19.5 -0.5t18.5 -0.5l-122 60q-23 12 -41 20t-34 12.5t-30.5 6.5t-30.5 2q-51 0 -82 -26.5t-43 -72.5l-80 25q17 76 70.5 122t131.5 46
q44 0 87 -14t102 -47l218 -119zM326 -102q-21 0 -36 15t-15 37q0 21 15 35.5t36 14.5t36 -14.5t15 -35.5q0 -22 -15 -37t-36 -15zM458 -102q-21 0 -35.5 15t-14.5 37q0 21 14.5 35.5t35.5 14.5t36 -14.5t15 -35.5q0 -22 -15 -37t-36 -15z" />
    <glyph glyph-name="uniFB78" unicode="&#x683;" horiz-adv-x="742" arabic-form="initial" 
d="M61 96q40 0 75 3t67.5 9t64.5 15t67 22l168 63l-119 68q-24 13 -42.5 22.5t-36 15.5t-34.5 9t-36 3q-45 0 -74.5 -26.5t-39.5 -67.5l-80 25q7 35 23.5 65t41 51.5t56.5 34t69 12.5q25 0 48 -4.5t45.5 -12.5t46.5 -20t51 -28l258 -148l-41 -82l-52 29l-207 -84
q-48 -20 -91 -33t-84 -21.5t-81.5 -12t-83.5 -3.5h-41q-6 0 -11 6t-9 14t-6.5 16t-2.5 13q0 4 2.5 11.5t6.5 15.5t9 14t11 6h62zM407 -200q-23 0 -38 15.5t-15 38.5t15 38t38 15q22 0 37 -15t15 -38t-15 -38.5t-37 -15.5zM270 -200q-22 0 -37.5 15.5t-15.5 38.5t15.5 38
t37.5 15t37 -15t15 -38t-15 -38.5t-37 -15.5z" />
    <glyph glyph-name="uniFB79" unicode="&#x683;" horiz-adv-x="754" arabic-form="medial" 
d="M-30 49q0 24 9 35.5t21 11.5h56q39 0 71.5 2t65.5 9t70 20t85 34l176 80l-112 50q-29 13 -51.5 21.5t-41 14t-34.5 7.5t-32 2q-54 0 -83.5 -25t-38.5 -68l-81 25q16 74 67.5 118.5t132.5 44.5q24 0 44.5 -2.5t43.5 -9.5t50 -18t65 -28l245 -106l-28 -81l-51 20l-32 -16
q1 -54 22.5 -74t69.5 -20h76q14 0 21.5 -10.5t7.5 -36.5q0 -49 -29 -49h-66q-77 0 -122.5 39.5t-50.5 115.5l-124 -62q-61 -31 -109 -49.5t-89 -28t-79.5 -12.5t-80.5 -3h-34q-12 0 -21 11.5t-9 37.5zM463 -200q-23 0 -38 15.5t-15 38.5t15 38t38 15q22 0 37 -15t15 -38
t-15 -38.5t-37 -15.5zM326 -200q-22 0 -37.5 15.5t-15.5 38.5t15.5 38t37.5 15t37 -15t15 -38t-15 -38.5t-37 -15.5z" />
    <glyph glyph-name="uniFB7B" unicode="&#x686;" horiz-adv-x="735" arabic-form="final" 
d="M641 192h-44q2 -30 8.5 -49t18 -29.5t28 -14t38.5 -3.5h45q13 0 21.5 -13.5t8.5 -36.5q0 -26 -9 -36t-21 -10h-35q-39 0 -70 9t-53.5 31t-35.5 59t-15 93h-18q-88 0 -151.5 -21t-105 -55.5t-61 -79t-19.5 -92.5q0 -98 62.5 -156.5t190.5 -58.5q77 0 131.5 23.5t92.5 62.5
l56 -73q-46 -51 -116.5 -80.5t-164.5 -29.5q-82 0 -146 22t-108 61.5t-67 93.5t-23 119q0 67 26 128t77 107.5t127 74t176 27.5q10 0 19.5 -0.5t18.5 -0.5l-122 60q-23 12 -41 20t-34 12.5t-30.5 6.5t-30.5 2q-51 0 -82 -26.5t-43 -72.5l-80 25q17 76 70.5 122t131.5 46
q44 0 87 -14t102 -47l218 -119zM456 37q20 0 34.5 -14.5t14.5 -35.5t-14.5 -35t-34.5 -14t-34.5 14t-14.5 35t14.5 35.5t34.5 14.5zM326 37q20 0 34.5 -14.5t14.5 -35.5t-14.5 -35t-34.5 -14t-34.5 14t-14.5 35t14.5 35.5t34.5 14.5zM391 -75q20 0 34.5 -14t14.5 -35
t-14.5 -35.5t-34.5 -14.5t-34.5 14.5t-14.5 35.5t14.5 35t34.5 14z" />
    <glyph glyph-name="uniFB7C" unicode="&#x686;" horiz-adv-x="742" arabic-form="initial" 
d="M61 96q40 0 75 3t67.5 9t64.5 15t67 22l168 63l-119 68q-24 13 -42.5 22.5t-36 15.5t-34.5 9t-36 3q-45 0 -74.5 -26.5t-39.5 -67.5l-80 25q7 35 23.5 65t41 51.5t56.5 34t69 12.5q25 0 48 -4.5t45.5 -12.5t46.5 -20t51 -28l258 -148l-41 -82l-52 29l-207 -84
q-48 -20 -91 -33t-84 -21.5t-81.5 -12t-83.5 -3.5h-41q-6 0 -11 6t-9 14t-6.5 16t-2.5 13q0 4 2.5 11.5t6.5 15.5t9 14t11 6h62zM406 -93q22 0 37 -15t15 -37q0 -23 -15 -37.5t-37 -14.5q-21 0 -36 14.5t-15 37.5q0 22 15 37t36 15zM271 -93q22 0 37 -15t15 -37
q0 -23 -15 -37.5t-37 -14.5q-21 0 -36 14.5t-15 37.5q0 22 15 37t36 15zM339 -209q22 0 37 -15t15 -38q0 -22 -15 -36.5t-37 -14.5q-21 0 -36 14.5t-15 36.5q0 23 15 38t36 15z" />
    <glyph glyph-name="uniFB7D" unicode="&#x686;" horiz-adv-x="754" arabic-form="medial" 
d="M-30 49q0 24 9 35.5t21 11.5h56q39 0 71.5 2t65.5 9t70 20t85 34l176 80l-112 50q-29 13 -51.5 21.5t-41 14t-34.5 7.5t-32 2q-54 0 -83.5 -25t-38.5 -68l-81 25q16 74 67.5 118.5t132.5 44.5q24 0 44.5 -2.5t43.5 -9.5t50 -18t65 -28l245 -106l-28 -81l-51 20l-32 -16
q1 -54 22.5 -74t69.5 -20h76q14 0 21.5 -10.5t7.5 -36.5q0 -49 -29 -49h-66q-77 0 -122.5 39.5t-50.5 115.5l-124 -62q-61 -31 -109 -49.5t-89 -28t-79.5 -12.5t-80.5 -3h-34q-12 0 -21 11.5t-9 37.5zM462 -93q22 0 37 -15t15 -37q0 -23 -15 -37.5t-37 -14.5q-21 0 -36 14.5
t-15 37.5q0 22 15 37t36 15zM327 -93q22 0 37 -15t15 -37q0 -23 -15 -37.5t-37 -14.5q-21 0 -36 14.5t-15 37.5q0 22 15 37t36 15zM395 -209q22 0 37 -15t15 -38q0 -22 -15 -36.5t-37 -14.5q-21 0 -36 14.5t-15 36.5q0 23 15 38t36 15z" />
    <glyph glyph-name="uniFB7F" unicode="&#x687;" horiz-adv-x="735" arabic-form="final" 
d="M641 192h-44q2 -30 8.5 -49t18 -29.5t28 -14t38.5 -3.5h45q13 0 21.5 -13.5t8.5 -36.5q0 -26 -9 -36t-21 -10h-35q-39 0 -70 9t-53.5 31t-35.5 59t-15 93h-18q-88 0 -151.5 -21t-105 -55.5t-61 -79t-19.5 -92.5q0 -98 62.5 -156.5t190.5 -58.5q77 0 131.5 23.5t92.5 62.5
l56 -73q-46 -51 -116.5 -80.5t-164.5 -29.5q-82 0 -146 22t-108 61.5t-67 93.5t-23 119q0 67 26 128t77 107.5t127 74t176 27.5q10 0 19.5 -0.5t18.5 -0.5l-122 60q-23 12 -41 20t-34 12.5t-30.5 6.5t-30.5 2q-51 0 -82 -26.5t-43 -72.5l-80 25q17 76 70.5 122t131.5 46
q44 0 87 -14t102 -47l218 -119zM333 -37q-20 0 -33.5 14t-13.5 34t13.5 33.5t33.5 13.5t33.5 -13.5t13.5 -33.5t-13.5 -34t-33.5 -14zM333 -161q-20 0 -33.5 14t-13.5 34t13.5 33.5t33.5 13.5t33.5 -13.5t13.5 -33.5t-13.5 -34t-33.5 -14zM456 -37q-20 0 -33.5 14t-13.5 34
t13.5 33.5t33.5 13.5t33 -13.5t13 -33.5t-13 -34t-33 -14zM456 -161q-20 0 -33.5 14t-13.5 34t13.5 33.5t33.5 13.5t33 -13.5t13 -33.5t-13 -34t-33 -14z" />
    <glyph glyph-name="uniFB80" unicode="&#x687;" horiz-adv-x="742" arabic-form="initial" 
d="M61 96q40 0 75 3t67.5 9t64.5 15t67 22l168 63l-119 68q-24 13 -42.5 22.5t-36 15.5t-34.5 9t-36 3q-45 0 -74.5 -26.5t-39.5 -67.5l-80 25q7 35 23.5 65t41 51.5t56.5 34t69 12.5q25 0 48 -4.5t45.5 -12.5t46.5 -20t51 -28l258 -148l-41 -82l-52 29l-207 -84
q-48 -20 -91 -33t-84 -21.5t-81.5 -12t-83.5 -3.5h-41q-6 0 -11 6t-9 14t-6.5 16t-2.5 13q0 4 2.5 11.5t6.5 15.5t9 14t11 6h62zM408 -328q-21 0 -35.5 15t-14.5 37q0 21 14.5 35.5t35.5 14.5t35.5 -14.5t14.5 -35.5q0 -22 -14.5 -37t-35.5 -15zM278 -328q-21 0 -36 15
t-15 37q0 21 15 35.5t36 14.5q20 0 35 -14.5t15 -35.5q0 -22 -15 -37t-35 -15zM408 -196q-21 0 -35.5 14.5t-14.5 36.5q0 21 14.5 35.5t35.5 14.5t35.5 -14.5t14.5 -35.5q0 -22 -14.5 -36.5t-35.5 -14.5zM278 -196q-21 0 -36 14.5t-15 36.5q0 21 15 35.5t36 14.5
q20 0 35 -14.5t15 -35.5q0 -22 -15 -36.5t-35 -14.5z" />
    <glyph glyph-name="uniFB81" unicode="&#x687;" horiz-adv-x="754" arabic-form="medial" 
d="M-30 49q0 24 9 35.5t21 11.5h56q39 0 71.5 2t65.5 9t70 20t85 34l176 80l-112 50q-29 13 -51.5 21.5t-41 14t-34.5 7.5t-32 2q-54 0 -83.5 -25t-38.5 -68l-81 25q16 74 67.5 118.5t132.5 44.5q24 0 44.5 -2.5t43.5 -9.5t50 -18t65 -28l245 -106l-28 -81l-51 20l-32 -16
q1 -54 22.5 -74t69.5 -20h76q14 0 21.5 -10.5t7.5 -36.5q0 -49 -29 -49h-66q-77 0 -122.5 39.5t-50.5 115.5l-124 -62q-61 -31 -109 -49.5t-89 -28t-79.5 -12.5t-80.5 -3h-34q-12 0 -21 11.5t-9 37.5zM464 -328q-21 0 -35.5 15t-14.5 37q0 21 14.5 35.5t35.5 14.5
t35.5 -14.5t14.5 -35.5q0 -22 -14.5 -37t-35.5 -15zM334 -328q-21 0 -36 15t-15 37q0 21 15 35.5t36 14.5q20 0 35 -14.5t15 -35.5q0 -22 -15 -37t-35 -15zM464 -196q-21 0 -35.5 14.5t-14.5 36.5q0 21 14.5 35.5t35.5 14.5t35.5 -14.5t14.5 -35.5q0 -22 -14.5 -36.5
t-35.5 -14.5zM334 -196q-21 0 -36 14.5t-15 36.5q0 21 15 35.5t36 14.5q20 0 35 -14.5t15 -35.5q0 -22 -15 -36.5t-35 -14.5z" />
    <glyph glyph-name="uniFB83" unicode="&#x68d;" horiz-adv-x="539" arabic-form="final" 
d="M40 98q26 -5 59.5 -9t71.5 -4q87 0 121.5 23t34.5 63q0 23 -7 45t-23 60l-84 197l92 36l111 -285q15 -38 28.5 -63t27.5 -39.5t30.5 -20t36.5 -5.5q30 0 30 -50q0 -26 -7 -36t-23 -10q-96 0 -152 88q-19 -48 -67 -73.5t-145 -25.5q-42 0 -79 4t-56 9v96zM323 -219
q-23 0 -38 15.5t-15 38.5t15 38t38 15q22 0 37 -15t15 -38t-15 -38.5t-37 -15.5zM186 -219q-22 0 -37.5 15.5t-15.5 38.5t15.5 38t37.5 15t37 -15t15 -38t-15 -38.5t-37 -15.5z" />
    <glyph glyph-name="uniFB85" unicode="&#x68c;" horiz-adv-x="539" arabic-form="final" 
d="M40 98q26 -5 59.5 -9t71.5 -4q87 0 121.5 23t34.5 63q0 23 -7 45t-23 60l-84 197l92 36l111 -285q15 -38 28.5 -63t27.5 -39.5t30.5 -20t36.5 -5.5q30 0 30 -50q0 -26 -7 -36t-23 -10q-96 0 -152 88q-19 -48 -67 -73.5t-145 -25.5q-42 0 -79 4t-56 9v96zM335 574
q-23 0 -38 15.5t-15 38.5q0 22 15 37t38 15q22 0 37 -15t15 -37q0 -23 -15 -38.5t-37 -15.5zM198 574q-22 0 -37.5 15.5t-15.5 38.5q0 22 15.5 37t37.5 15t37 -15t15 -37q0 -23 -15 -38.5t-37 -15.5z" />
    <glyph glyph-name="uniFB89" unicode="&#x688;" horiz-adv-x="539" arabic-form="final" 
d="M40 98q26 -5 59.5 -9t71.5 -4q87 0 121.5 23t34.5 63q0 23 -7 45t-23 60l-84 197l92 36l111 -285q15 -38 28.5 -63t27.5 -39.5t30.5 -20t36.5 -5.5q30 0 30 -50q0 -26 -7 -36t-23 -10q-96 0 -152 88q-19 -48 -67 -73.5t-145 -25.5q-42 0 -79 4t-56 9v96zM139 584v54h41
v203h49v-104q30 30 72 30t66 -24t24 -65t-30 -67.5t-100 -26.5h-122zM270 639q42 0 58.5 10.5t16.5 27.5q0 19 -13 30t-36 11q-32 0 -50 -22.5t-23 -56.5h47z" />
    <glyph glyph-name="uniFB8B" unicode="&#x698;" horiz-adv-x="431" arabic-form="final" 
d="M269 291q63 -89 81 -195h82q10 0 17 -12t7 -37q0 -28 -7 -37.5t-18 -9.5h-76q-3 -56 -21.5 -100t-49 -74t-71.5 -46t-89 -16q-42 0 -79 10t-57 23l36 83q44 -22 94 -22q71 0 109.5 42t38.5 118q0 58 -21 113.5t-56 102.5zM294 366q-21 0 -36 15t-15 37t15 37t36 15
q22 0 37 -15t15 -37t-15 -37t-37 -15zM158 366q-21 0 -36 15t-15 37t15 37t36 15q22 0 37 -15t15 -37t-15 -37t-37 -15zM227 482q-21 0 -36 15t-15 37t15 37t36 15q22 0 37 -15t15 -37t-15 -37t-37 -15z" />
    <glyph glyph-name="uniFB8D" unicode="&#x691;" horiz-adv-x="402" arabic-form="final" 
d="M269 291q63 -89 81 -195h82q10 0 17 -12t7 -37q0 -28 -7 -37.5t-18 -9.5h-76q-3 -56 -21.5 -100t-49 -74t-71.5 -46t-89 -16q-42 0 -79 10t-57 23l36 83q44 -22 94 -22q71 0 109.5 42t38.5 118q0 58 -21 113.5t-56 102.5zM107 354v54h41v203h49v-104q30 30 72 30t66 -24
t24 -65t-30 -67.5t-100 -26.5h-122zM238 409q42 0 58.5 10.5t16.5 27.5q0 19 -13 30t-36 11q-32 0 -50 -22.5t-23 -56.5h47z" />
    <glyph glyph-name="uniFB8F" unicode="&#x6a9;" horiz-adv-x="1107" arabic-form="final" 
d="M67 217q0 42 10 78t27 65l79 -30q-12 -23 -19 -48.5t-7 -53.5q0 -64 40.5 -98t138.5 -34h216q92 0 131 25.5t39 75.5q0 19 -5 36.5t-21.5 40t-48 55t-84.5 82.5v83l356 246l73 -54l-337 -233l220 -228q39 -40 68.5 -65t54.5 -39.5t48 -19.5t48 -5h13q11 0 20.5 -10
t9.5 -39q0 -26 -9 -36.5t-21 -10.5h-19q-30 0 -59.5 7t-60 22.5t-62.5 41t-68 62.5l-42 44q-8 -91 -68 -134t-175 -43h-237q-126 0 -187.5 58.5t-61.5 158.5z" />
    <glyph glyph-name="uniFB90" unicode="&#x6a9;" horiz-adv-x="487" arabic-form="initial" 
d="M386 740l74 -54l-339 -231q100 -31 148.5 -91t48.5 -138q0 -50 -19 -91.5t-55 -71.5t-88 -46.5t-118 -16.5h-38q-14 0 -22 10t-8 38q0 29 8 38.5t22 9.5h31q104 0 151 36.5t47 97.5q0 60 -48.5 104t-154.5 62v96z" />
    <glyph glyph-name="uniFB91" unicode="&#x6a9;" horiz-adv-x="600" arabic-form="medial" 
d="M405 740l74 -54l-337 -233l220 -228q39 -40 68.5 -65t54.5 -39.5t47.5 -19.5t47.5 -5h21q11 0 20 -10t9 -39q0 -26 -9 -36.5t-21 -10.5h-25q-31 0 -60.5 7t-59.5 22.5t-62 41t-68 62.5l-42 44q-8 -91 -68 -134t-175 -43h-40q-14 0 -22 10.5t-8 36.5q0 29 8 39t21 10h39
q92 0 131.5 25.5t39.5 75.5q0 19 -5 36.5t-21.5 40t-48 55t-85.5 82.5v83z" />
    <glyph glyph-name="uniFB93" unicode="&#x6af;" horiz-adv-x="1107" arabic-form="final" 
d="M67 217q0 42 10 78t27 65l79 -30q-12 -23 -19 -48.5t-7 -53.5q0 -64 40.5 -98t138.5 -34h216q92 0 131 25.5t39 75.5q0 19 -5 36.5t-21.5 40t-48 55t-84.5 82.5v83l356 246l73 -54l-337 -233l220 -228q39 -40 68.5 -65t54.5 -39.5t48 -19.5t48 -5h13q11 0 20.5 -10
t9.5 -39q0 -26 -9 -36.5t-21 -10.5h-19q-30 0 -59.5 7t-60 22.5t-62.5 41t-68 62.5l-42 44q-8 -91 -68 -134t-175 -43h-237q-126 0 -187.5 58.5t-61.5 158.5zM563 613l274 192l41 -31l-315 -218v57z" />
    <glyph glyph-name="uniFB94" unicode="&#x6af;" horiz-adv-x="487" arabic-form="initial" 
d="M386 740l74 -54l-339 -231q100 -31 148.5 -91t48.5 -138q0 -50 -19 -91.5t-55 -71.5t-88 -46.5t-118 -16.5h-38q-14 0 -22 10t-8 38q0 29 8 38.5t22 9.5h31q104 0 151 36.5t47 97.5q0 60 -48.5 104t-154.5 62v96zM27 612l274 192l41 -31l-315 -218v57z" />
    <glyph glyph-name="uniFB95" unicode="&#x6af;" horiz-adv-x="600" arabic-form="medial" 
d="M405 740l74 -54l-337 -233l220 -228q39 -40 68.5 -65t54.5 -39.5t47.5 -19.5t47.5 -5h21q11 0 20 -10t9 -39q0 -26 -9 -36.5t-21 -10.5h-25q-31 0 -60.5 7t-59.5 22.5t-62 41t-68 62.5l-42 44q-8 -91 -68 -134t-175 -43h-40q-14 0 -22 10.5t-8 36.5q0 29 8 39t21 10h39
q92 0 131.5 25.5t39.5 75.5q0 19 -5 36.5t-21.5 40t-48 55t-85.5 82.5v83zM48 613l274 192l41 -31l-315 -218v57z" />
    <glyph glyph-name="uniFB97" unicode="&#x6b3;" horiz-adv-x="1107" arabic-form="final" 
d="M67 217q0 42 10 78t27 65l79 -30q-12 -23 -19 -48.5t-7 -53.5q0 -64 40.5 -98t138.5 -34h216q92 0 131 25.5t39 75.5q0 19 -5 36.5t-21.5 40t-48 55t-84.5 82.5v83l356 246l73 -54l-337 -233l220 -228q39 -40 68.5 -65t54.5 -39.5t48 -19.5t48 -5h13q11 0 20.5 -10
t9.5 -39q0 -26 -9 -36.5t-21 -10.5h-19q-30 0 -59.5 7t-60 22.5t-62.5 41t-68 62.5l-42 44q-8 -91 -68 -134t-175 -43h-237q-126 0 -187.5 58.5t-61.5 158.5zM563 613l274 192l41 -31l-315 -218v57zM436 -161q-22 0 -36.5 15t-14.5 38q0 22 14.5 37t36.5 15q21 0 36.5 -15
t15.5 -37q0 -23 -15.5 -38t-36.5 -15zM436 -290q-22 0 -36.5 15.5t-14.5 37.5q0 23 14.5 37.5t36.5 14.5q21 0 36.5 -14.5t15.5 -37.5q0 -22 -15.5 -37.5t-36.5 -15.5z" />
    <glyph glyph-name="uniFB98" unicode="&#x6b3;" horiz-adv-x="487" arabic-form="initial" 
d="M386 740l74 -54l-339 -231q100 -31 148.5 -91t48.5 -138q0 -50 -19 -91.5t-55 -71.5t-88 -46.5t-118 -16.5h-38q-14 0 -22 10t-8 38q0 29 8 38.5t22 9.5h31q104 0 151 36.5t47 97.5q0 60 -48.5 104t-154.5 62v96zM27 612l274 192l41 -31l-315 -218v57zM138 -161
q-22 0 -36.5 15t-14.5 38q0 22 14.5 37t36.5 15q21 0 36.5 -15t15.5 -37q0 -23 -15.5 -38t-36.5 -15zM138 -290q-22 0 -36.5 15.5t-14.5 37.5q0 23 14.5 37.5t36.5 14.5q21 0 36.5 -14.5t15.5 -37.5q0 -22 -15.5 -37.5t-36.5 -15.5z" />
    <glyph glyph-name="uniFB99" unicode="&#x6b3;" horiz-adv-x="600" arabic-form="medial" 
d="M405 740l74 -54l-337 -233l220 -228q39 -40 68.5 -65t54.5 -39.5t47.5 -19.5t47.5 -5h21q11 0 20 -10t9 -39q0 -26 -9 -36.5t-21 -10.5h-25q-31 0 -60.5 7t-59.5 22.5t-62 41t-68 62.5l-42 44q-8 -91 -68 -134t-175 -43h-40q-14 0 -22 10.5t-8 36.5q0 29 8 39t21 10h39
q92 0 131.5 25.5t39.5 75.5q0 19 -5 36.5t-21.5 40t-48 55t-85.5 82.5v83zM48 613l274 192l41 -31l-315 -218v57zM307 -161q-22 0 -36.5 15t-14.5 38q0 22 14.5 37t36.5 15q21 0 36.5 -15t15.5 -37q0 -23 -15.5 -38t-36.5 -15zM307 -290q-22 0 -36.5 15.5t-14.5 37.5
q0 23 14.5 37.5t36.5 14.5q21 0 36.5 -14.5t15.5 -37.5q0 -22 -15.5 -37.5t-36.5 -15.5z" />
    <glyph glyph-name="uniFB9B" unicode="&#x6b1;" horiz-adv-x="1107" arabic-form="final" 
d="M67 217q0 42 10 78t27 65l79 -30q-12 -23 -19 -48.5t-7 -53.5q0 -64 40.5 -98t138.5 -34h216q92 0 131 25.5t39 75.5q0 19 -5 36.5t-21.5 40t-48 55t-84.5 82.5v83l356 246l73 -54l-337 -233l220 -228q39 -40 68.5 -65t54.5 -39.5t48 -19.5t48 -5h13q11 0 20.5 -10
t9.5 -39q0 -26 -9 -36.5t-21 -10.5h-19q-30 0 -59.5 7t-60 22.5t-62.5 41t-68 62.5l-42 44q-8 -91 -68 -134t-175 -43h-237q-126 0 -187.5 58.5t-61.5 158.5zM563 613l274 192l41 -31l-315 -218v57zM728 782q-20 0 -34 14t-14 35q0 20 14 33.5t34 13.5t33.5 -13.5
t13.5 -33.5q0 -21 -13.5 -35t-33.5 -14zM611 704q-20 0 -34 14t-14 34t14 34t34 14t33.5 -14t13.5 -34t-13.5 -34t-33.5 -14z" />
    <glyph glyph-name="uniFB9C" unicode="&#x6b1;" horiz-adv-x="487" arabic-form="initial" 
d="M386 740l74 -54l-339 -231q100 -31 148.5 -91t48.5 -138q0 -50 -19 -91.5t-55 -71.5t-88 -46.5t-118 -16.5h-38q-14 0 -22 10t-8 38q0 29 8 38.5t22 9.5h31q104 0 151 36.5t47 97.5q0 60 -48.5 104t-154.5 62v96zM27 612l274 192l41 -31l-315 -218v57zM192 782
q-20 0 -34 14t-14 35q0 20 14 33.5t34 13.5t33.5 -13.5t13.5 -33.5q0 -21 -13.5 -35t-33.5 -14zM75 704q-20 0 -34 14t-14 34t14 34t34 14t33.5 -14t13.5 -34t-13.5 -34t-33.5 -14z" />
    <glyph glyph-name="uniFB9D" unicode="&#x6b1;" horiz-adv-x="600" arabic-form="medial" 
d="M405 740l74 -54l-337 -233l220 -228q39 -40 68.5 -65t54.5 -39.5t47.5 -19.5t47.5 -5h21q11 0 20 -10t9 -39q0 -26 -9 -36.5t-21 -10.5h-25q-31 0 -60.5 7t-59.5 22.5t-62 41t-68 62.5l-42 44q-8 -91 -68 -134t-175 -43h-40q-14 0 -22 10.5t-8 36.5q0 29 8 39t21 10h39
q92 0 131.5 25.5t39.5 75.5q0 19 -5 36.5t-21.5 40t-48 55t-85.5 82.5v83zM48 613l274 192l41 -31l-315 -218v57zM214 782q-20 0 -34 14t-14 35q0 20 14 33.5t34 13.5t33.5 -13.5t13.5 -33.5q0 -21 -13.5 -35t-33.5 -14zM97 704q-20 0 -34 14t-14 34t14 34t34 14t33.5 -14
t13.5 -34t-13.5 -34t-33.5 -14z" />
    <glyph glyph-name="uniFB9F" unicode="&#x6ba;" horiz-adv-x="679" arabic-form="final" 
d="M92 185l81 -25q-9 -25 -15 -51.5t-6 -58.5q0 -76 46.5 -118.5t143.5 -42.5q93 0 143 42t50 124q0 48 -16 90t-51 81l68 72q34 -38 56 -85.5t30 -103.5q17 -13 57 -13q14 0 22 -11.5t8 -37.5q0 -27 -8 -37t-22 -10q-36 0 -58 11q-13 -103 -84.5 -160.5t-196.5 -57.5
q-69 0 -121 18t-87 51t-52.5 79t-17.5 101q0 42 8.5 78t21.5 65z" />
    <glyph glyph-name="uniFBA1" unicode="&#x6bb;" horiz-adv-x="679" arabic-form="final" 
d="M92 185l81 -25q-9 -25 -15 -51.5t-6 -58.5q0 -76 46.5 -118.5t143.5 -42.5q93 0 143 42t50 124q0 48 -16 90t-51 81l68 72q34 -38 56 -85.5t30 -103.5q17 -13 57 -13q14 0 22 -11.5t8 -37.5q0 -27 -8 -37t-22 -10q-36 0 -58 11q-13 -103 -84.5 -160.5t-196.5 -57.5
q-69 0 -121 18t-87 51t-52.5 79t-17.5 101q0 42 8.5 78t21.5 65zM215 292v54h41v203h49v-104q30 30 72 30t66 -24t24 -65t-30 -67.5t-100 -26.5h-122zM346 347q42 0 58.5 10.5t16.5 27.5q0 19 -13 30t-36 11q-32 0 -50 -22.5t-23 -56.5h47z" />
    </font>
</defs>
</svg>
